<svg viewBox="0 0 1033 400" xmlns="http://www.w3.org/2000/svg"><g><g><g><g><g><line x1="41.171875" y1="377" x2="36.171875" y2="377" style="visibility: inherit;" fill="rgb(0, 0, 0)" stroke="rgb(204, 204, 204)" stroke-width="1px"></line><line x1="41.171875" y1="342.7272727272727" x2="36.171875" y2="342.7272727272727" style="visibility: inherit;" fill="rgb(0, 0, 0)" stroke="rgb(204, 204, 204)" stroke-width="1px"></line><line x1="41.171875" y1="308.45454545454544" x2="36.171875" y2="308.45454545454544" style="visibility: inherit;" fill="rgb(0, 0, 0)" stroke="rgb(204, 204, 204)" stroke-width="1px"></line><line x1="41.171875" y1="274.1818181818182" x2="36.171875" y2="274.1818181818182" style="visibility: inherit;" fill="rgb(0, 0, 0)" stroke="rgb(204, 204, 204)" stroke-width="1px"></line><line x1="41.171875" y1="239.9090909090909" x2="36.171875" y2="239.9090909090909" style="visibility: inherit;" fill="rgb(0, 0, 0)" stroke="rgb(204, 204, 204)" stroke-width="1px"></line><line x1="41.171875" y1="205.63636363636363" x2="36.171875" y2="205.63636363636363" style="visibility: inherit;" fill="rgb(0, 0, 0)" stroke="rgb(204, 204, 204)" stroke-width="1px"></line><line x1="41.171875" y1="171.36363636363637" x2="36.171875" y2="171.36363636363637" style="visibility: inherit;" fill="rgb(0, 0, 0)" stroke="rgb(204, 204, 204)" stroke-width="1px"></line><line x1="41.171875" y1="137.0909090909091" x2="36.171875" y2="137.0909090909091" style="visibility: inherit;" fill="rgb(0, 0, 0)" stroke="rgb(204, 204, 204)" stroke-width="1px"></line><line x1="41.171875" y1="102.81818181818181" x2="36.171875" y2="102.81818181818181" style="visibility: inherit;" fill="rgb(0, 0, 0)" stroke="rgb(204, 204, 204)" stroke-width="1px"></line><line x1="41.171875" y1="68.54545454545453" x2="36.171875" y2="68.54545454545453" style="visibility: inherit;" fill="rgb(0, 0, 0)" stroke="rgb(204, 204, 204)" stroke-width="1px"></line><line x1="41.171875" y1="34.27272727272729" x2="36.171875" y2="34.27272727272729" style="visibility: inherit;" fill="rgb(0, 0, 0)" stroke="rgb(204, 204, 204)" stroke-width="1px"></line><line x1="41.171875" y1="0" x2="36.171875" y2="0" style="visibility: inherit;" fill="rgb(0, 0, 0)" stroke="rgb(204, 204, 204)" stroke-width="1px"></line></g><g transform="translate(31.171875, 0)"><text x="0" y="377" dx="0em" dy="0.3em" style="text-anchor: end; visibility: hidden; font-family: Roboto, sans-serif; font-size: 12px; font-weight: 200;" fill="rgb(255, 255, 255)" stroke="none" stroke-width="1px">0</text><text x="0" y="342.7272727272727" dx="0em" dy="0.3em" style="text-anchor: end; visibility: inherit; font-family: Roboto, sans-serif; font-size: 12px; font-weight: 200;" fill="rgb(255, 255, 255)" stroke="none" stroke-width="1px">20</text><text x="0" y="308.45454545454544" dx="0em" dy="0.3em" style="text-anchor: end; visibility: inherit; font-family: Roboto, sans-serif; font-size: 12px; font-weight: 200;" fill="rgb(255, 255, 255)" stroke="none" stroke-width="1px">40</text><text x="0" y="274.1818181818182" dx="0em" dy="0.3em" style="text-anchor: end; visibility: inherit; font-family: Roboto, sans-serif; font-size: 12px; font-weight: 200;" fill="rgb(255, 255, 255)" stroke="none" stroke-width="1px">60</text><text x="0" y="239.9090909090909" dx="0em" dy="0.3em" style="text-anchor: end; visibility: inherit; font-family: Roboto, sans-serif; font-size: 12px; font-weight: 200;" fill="rgb(255, 255, 255)" stroke="none" stroke-width="1px">80</text><text x="0" y="205.63636363636363" dx="0em" dy="0.3em" style="text-anchor: end; visibility: inherit; font-family: Roboto, sans-serif; font-size: 12px; font-weight: 200;" fill="rgb(255, 255, 255)" stroke="none" stroke-width="1px">100</text><text x="0" y="171.36363636363637" dx="0em" dy="0.3em" style="text-anchor: end; visibility: inherit; font-family: Roboto, sans-serif; font-size: 12px; font-weight: 200;" fill="rgb(255, 255, 255)" stroke="none" stroke-width="1px">120</text><text x="0" y="137.0909090909091" dx="0em" dy="0.3em" style="text-anchor: end; visibility: inherit; font-family: Roboto, sans-serif; font-size: 12px; font-weight: 200;" fill="rgb(255, 255, 255)" stroke="none" stroke-width="1px">140</text><text x="0" y="102.81818181818181" dx="0em" dy="0.3em" style="text-anchor: end; visibility: inherit; font-family: Roboto, sans-serif; font-size: 12px; font-weight: 200;" fill="rgb(255, 255, 255)" stroke="none" stroke-width="1px">160</text><text x="0" y="68.54545454545453" dx="0em" dy="0.3em" style="text-anchor: end; visibility: inherit; font-family: Roboto, sans-serif; font-size: 12px; font-weight: 200;" fill="rgb(255, 255, 255)" stroke="none" stroke-width="1px">180</text><text x="0" y="34.27272727272729" dx="0em" dy="0.3em" style="text-anchor: end; visibility: inherit; font-family: Roboto, sans-serif; font-size: 12px; font-weight: 200;" fill="rgb(255, 255, 255)" stroke="none" stroke-width="1px">200</text><text x="0" y="0" dx="0em" dy="0.3em" style="text-anchor: end; visibility: hidden; font-family: Roboto, sans-serif; font-size: 12px; font-weight: 200;" fill="rgb(255, 255, 255)" stroke="none" stroke-width="1px">220</text></g><line x1="41.171875" y1="0" x2="41.171875" y2="377" fill="rgb(0, 0, 0)" stroke="rgb(204, 204, 204)" stroke-width="1px"></line></g></g><g transform="translate(41, 0)" clip-path="url(#clip_0)"><clipPath id="clip_0"><rect width="991" height="377"></rect></clipPath><g><g><g><line x1="0" y1="0" x2="0" y2="377" fill="rgb(0, 0, 0)" stroke="rgb(189, 189, 189)" stroke-width="1px" opacity="0.25"></line><line x1="82.65234375" y1="0" x2="82.65234375" y2="377" fill="rgb(0, 0, 0)" stroke="rgb(189, 189, 189)" stroke-width="1px" opacity="0.25"></line><line x1="165.3046875" y1="0" x2="165.3046875" y2="377" fill="rgb(0, 0, 0)" stroke="rgb(189, 189, 189)" stroke-width="1px" opacity="0.25"></line><line x1="247.95703125" y1="0" x2="247.95703125" y2="377" fill="rgb(0, 0, 0)" stroke="rgb(189, 189, 189)" stroke-width="1px" opacity="0.25"></line><line x1="330.609375" y1="0" x2="330.609375" y2="377" fill="rgb(0, 0, 0)" stroke="rgb(189, 189, 189)" stroke-width="1px" opacity="0.25"></line><line x1="413.26171875" y1="0" x2="413.26171875" y2="377" fill="rgb(0, 0, 0)" stroke="rgb(189, 189, 189)" stroke-width="1px" opacity="0.25"></line><line x1="495.9140625" y1="0" x2="495.9140625" y2="377" fill="rgb(0, 0, 0)" stroke="rgb(189, 189, 189)" stroke-width="1px" opacity="0.25"></line><line x1="578.56640625" y1="0" x2="578.56640625" y2="377" fill="rgb(0, 0, 0)" stroke="rgb(189, 189, 189)" stroke-width="1px" opacity="0.25"></line><line x1="661.21875" y1="0" x2="661.21875" y2="377" fill="rgb(0, 0, 0)" stroke="rgb(189, 189, 189)" stroke-width="1px" opacity="0.25"></line><line x1="743.87109375" y1="0" x2="743.87109375" y2="377" fill="rgb(0, 0, 0)" stroke="rgb(189, 189, 189)" stroke-width="1px" opacity="0.25"></line><line x1="826.5234375" y1="0" x2="826.5234375" y2="377" fill="rgb(0, 0, 0)" stroke="rgb(189, 189, 189)" stroke-width="1px" opacity="0.25"></line><line x1="909.17578125" y1="0" x2="909.17578125" y2="377" fill="rgb(0, 0, 0)" stroke="rgb(189, 189, 189)" stroke-width="1px" opacity="0.25"></line><line x1="991.828125" y1="0" x2="991.828125" y2="377" fill="rgb(0, 0, 0)" stroke="rgb(189, 189, 189)" stroke-width="1px" opacity="0.25"></line></g><g><line x1="0" y1="377" x2="991.828125" y2="377" fill="rgb(0, 0, 0)" stroke="rgb(189, 189, 189)" stroke-width="1px" opacity="0.25"></line><line x1="0" y1="342.7272727272727" x2="991.828125" y2="342.7272727272727" fill="rgb(0, 0, 0)" stroke="rgb(189, 189, 189)" stroke-width="1px" opacity="0.25"></line><line x1="0" y1="308.45454545454544" x2="991.828125" y2="308.45454545454544" fill="rgb(0, 0, 0)" stroke="rgb(189, 189, 189)" stroke-width="1px" opacity="0.25"></line><line x1="0" y1="274.1818181818182" x2="991.828125" y2="274.1818181818182" fill="rgb(0, 0, 0)" stroke="rgb(189, 189, 189)" stroke-width="1px" opacity="0.25"></line><line x1="0" y1="239.9090909090909" x2="991.828125" y2="239.9090909090909" fill="rgb(0, 0, 0)" stroke="rgb(189, 189, 189)" stroke-width="1px" opacity="0.25"></line><line x1="0" y1="205.63636363636363" x2="991.828125" y2="205.63636363636363" fill="rgb(0, 0, 0)" stroke="rgb(189, 189, 189)" stroke-width="1px" opacity="0.25"></line><line x1="0" y1="171.36363636363637" x2="991.828125" y2="171.36363636363637" fill="rgb(0, 0, 0)" stroke="rgb(189, 189, 189)" stroke-width="1px" opacity="0.25"></line><line x1="0" y1="137.0909090909091" x2="991.828125" y2="137.0909090909091" fill="rgb(0, 0, 0)" stroke="rgb(189, 189, 189)" stroke-width="1px" opacity="0.25"></line><line x1="0" y1="102.81818181818181" x2="991.828125" y2="102.81818181818181" fill="rgb(0, 0, 0)" stroke="rgb(189, 189, 189)" stroke-width="1px" opacity="0.25"></line><line x1="0" y1="68.54545454545453" x2="991.828125" y2="68.54545454545453" fill="rgb(0, 0, 0)" stroke="rgb(189, 189, 189)" stroke-width="1px" opacity="0.25"></line><line x1="0" y1="34.27272727272729" x2="991.828125" y2="34.27272727272729" fill="rgb(0, 0, 0)" stroke="rgb(189, 189, 189)" stroke-width="1px" opacity="0.25"></line><line x1="0" y1="0" x2="991.828125" y2="0" fill="rgb(0, 0, 0)" stroke="rgb(189, 189, 189)" stroke-width="1px" opacity="0.25"></line></g></g></g><g><g><line x1="0" y1="377" x2="991.828125" y2="377" fill="rgb(0, 0, 0)" stroke="rgb(153, 153, 153)" stroke-width="1.5px"></line></g></g><g><g><line x1="82.65234375" y1="0" x2="82.65234375" y2="377" fill="rgb(0, 0, 0)" stroke="rgb(153, 153, 153)" stroke-width="1.5px"></line></g></g><g><g><g><g><g><path stroke="rgb(0, 153, 136)" stroke-width="2px" d="M82.65234375,337.14799215143375L90.91757812499999,325.01288187070327L99.18281250000001,311.66104421420977L107.448046875,292.41912361944424L115.71328125000001,276.68022372513104L123.978515625,266.9012341033783L132.24375,257.2580637212269L140.50898437499998,250.14629940598718L148.77421875,242.2013492144633L157.039453125,231.22184315331253L165.3046875,212.31278605566868L173.56992187499998,209.636391158811L181.83515624999998,190.72299164983326L190.10039062500002,155.92548576007187L198.36562500000002,124.27161691701941L206.630859375,124.6991916815113L214.89609375,109.54665064598753L223.161328125,112.43711212322144L231.42656250000002,118.77382522723133L239.691796875,116.01458834717326L247.95703125,86.97296092200303L256.22226562500003,65.89258999885882L264.4875,53.24454502297247L272.75273437500005,45.655781964421145L281.01796874999997,41.10254714276581L289.283203125,38.37061453457259L297.5484375,36.73145795217348L305.813671875,35.74796507643767L314.07890625,35.15786973752906L322.344140625,34.80381267333556L330.609375,34.591378484914095L338.87460937500003,34.463917989895236L347.13984374999995,34.38744169937613L355.405078125,38.91125651442835L363.67031249999997,41.39705349529058L371.935546875,54.198531773115185L380.20078125000003,66.98769505410522L388.466015625,82.10326345089483L396.73125000000005,96.1666349207166L404.99648437499997,109.50075869686121L413.26171875,117.10954613331027L421.526953125,122.45819222668297L429.7921875,127.79718806482411L438.057421875,135.37035829475195L446.32265625,138.80039679538956L454.587890625,144.20001080484323L462.85312500000003,149.49614284674047L471.11835937499995,151.98836752628205L479.38359375,142.68779324291665L487.64882812499997,126.44618094495289L495.9140625,109.45498129416202L504.179296875,92.17723468709148L512.4445312500001,74.38482217430654L520.709765625,62.22423012430662L528.975,52.87151125794983L537.240234375,49.31624357450399L545.5054687500001,48.55399205534672L553.7707031250001,46.38300478021586L562.0359374999999,44.16646604839385L570.3011718749999,44.77867099422642L578.56640625,41.60447532380848L586.831640625,40.49965837765684L595.096875,40.522222755420415L603.3621093749999,43.163333653252266L611.62734375,42.920117917670446L619.892578125,39.461161659693154L628.1578125,39.670632903353194L636.4230468750001,38.65389837992922L644.68828125,38.3865849386021L652.953515625,36.74104187225212L661.21875,35.75371603244218L669.4839843750001,35.16132052855623L677.7492187500001,34.805883226224616L686.0144531249999,34.59262084482571L694.2796874999999,34.464663415986365L702.544921875,34.38788895868275L710.81015625,34.34182428430056L719.075390625,34.314185479671224L727.3406249999999,34.297602196893635L735.605859375,34.28765222722707L743.87109375,34.28168224542721L752.136328125,34.27810025634728L760.4015625000001,34.27595106289926L768.666796875,34.27466154683048L776.93203125,34.27388783718918L785.197265625,34.27342361140445L793.4625000000001,34.273145075933606L801.7277343750001,34.27297795465108L809.9929687499999,34.272877681881575L818.2582031249999,34.27281751821988L826.5234375,35.87217187301467L834.788671875,36.489057213164315L843.05390625,38.572824780890436L851.3191406249999,44.507031688269684L859.584375,60.40573765087908L867.849609375,77.27279622822276L876.11484375,87.98055637129977L884.3800781250001,85.11894336978803L892.6453125,88.47759829393429L900.910546875,93.62629624775616" style="fill: none;" fill="none"></path></g><g><path stroke="rgb(238, 51, 119)" stroke-width="2px" d="M82.65234375,337.14799215143375L90.91757812499999,326.06913505467503L99.18281250000001,315.4792094996776L107.448046875,298.73192527791394L115.71328125000001,288.914580755611L123.978515625,281.1258940940303L132.24375,269.9570365161686L140.50898437499998,258.64421068148397L148.77421875,225.45386235009067L157.039453125,205.37189839222023L165.3046875,192.10125732863781L173.56992187499998,175.1153707283608L181.83515624999998,147.53137764585932L190.10039062500002,135.70800584782435L198.36562500000002,126.85649029735318L206.630859375,128.7965223932111L214.89609375,131.60066081015958L223.161328125,129.68383817730856L231.42656250000002,125.30224818465602L239.691796875,131.21747427174049L247.95703125,129.64993517801415L256.22226562500003,128.31773129738923L264.4875,92.8700592935534L272.75273437500005,72.40132904047444L281.01796874999997,57.94954770264405L289.283203125,51.79183584337422L297.5484375,46.04084970930107L305.813671875,41.33359784397534L314.07890625,44.79258770969901L322.344140625,60.95243483270628L330.609375,63.646915802486006L338.87460937500003,77.25905965574506L347.13984374999995,79.02877269768975L355.405078125,81.46150959895914L363.67031249999997,90.49378454901284L371.935546875,102.66977585433024L380.20078125000003,99.00809776199873L388.466015625,81.56788540906857L396.73125000000005,62.6498221123842L404.99648437499997,51.29898416134819L413.26171875,44.48848140043748L421.526953125,40.402179747386974L429.7921875,37.950398756815176L438.057421875,36.47933016292516L446.32265625,35.59668900675428L454.587890625,56.414114313110225L462.85312500000003,101.25150063577532L471.11835937499995,125.09794583654605L479.38359375,144.67048583604253L487.64882812499997,163.6417450013127L495.9140625,172.14559350129494L504.179296875,181.01790260126887L512.4445312500001,195.66346883351412L520.709765625,211.5689887819256L528.975,220.2686663987107L537.240234375,218.65309923941672L545.5054687500001,218.43152944055606L553.7707031250001,215.6190853306818L562.0359374999999,204.9085400156578L570.3011718749999,195.37481923589016L578.56640625,187.06509123746778L586.831640625,181.08915459044758L595.096875,171.543947299723L603.3621093749999,166.50227747074283L611.62734375,156.19432102790023L619.892578125,148.3815926167401L628.1578125,140.5359655687124L636.4230468750001,127.1135288873478L644.68828125,115.8286323304112L652.953515625,98.7432434907094L661.21875,86.20715472923568L669.4839843750001,76.28641056326049L677.7492187500001,71.70487315458449L686.0144531249999,72.26898798521346L694.2796874999999,75.80623778957447L702.544921875,88.37361130944247L710.81015625,98.06831814730434L719.075390625,109.17294043450303L727.3406249999999,121.02558244252L735.605859375,128.1371676473302L743.87109375,140.20116422476175L752.136328125,149.08655770178268L760.4015625000001,152.6851164392514L768.666796875,156.95773827341856L776.93203125,153.63782478223297L785.197265625,128.5117857784307L793.4625000000001,94.58616237614928L801.7277343750001,70.46078833478047L809.9929687499999,55.98556390995925L818.2582031249999,66.83588380052097L826.5234375,53.810621189403456L834.788671875,45.995463622732984L843.05390625,41.3063690827307L851.3191406249999,38.49291235872936L859.584375,36.80483832432854L867.849609375,35.791993903688066L876.11484375,35.18428725130379L884.3800781250001,34.819663259873195L892.6453125,34.6008888650148L900.910546875,34.46962422809981" style="fill: none;" fill="none"></path></g><g><path stroke="rgb(51, 187, 238)" stroke-width="2px" d="M82.65234375,337.14799215143375L90.91757812499999,319.04322449294006L99.18281250000001,315.3570642467775L107.448046875,307.5672394793939L115.71328125000001,307.80343716981L123.978515625,300.0957250588295L132.24375,289.8464560030641L140.50898437499998,286.0298304256411L148.77421875,279.1218039923022L157.039453125,270.8811946732579L165.3046875,264.6387968411232L173.56992187499998,264.1708959499153L181.83515624999998,256.51253521933256L190.10039062500002,243.46335411276354L198.36562500000002,239.58361076981748L206.630859375,246.3874774063607L214.89609375,238.48251203361218L223.161328125,244.53739488107965L231.42656250000002,227.91662978687145L239.691796875,225.5953491569884L247.95703125,230.21367283338657L256.22226562500003,232.61550763838642L264.4875,222.75848531458695L272.75273437500005,171.84445584575843L281.01796874999997,150.79466411617048L289.283203125,154.73816883296445L297.5484375,147.67925771141478L305.813671875,159.59018936604346L314.07890625,160.71997320282793L322.344140625,166.04370343248587L330.609375,167.4862222508335L338.87460937500003,179.66173431950787L347.13984374999995,182.13077692120967L355.405078125,190.09355833588046L363.67031249999997,208.3852278341746L371.935546875,218.25295498410284L380.20078125000003,228.70813830063753L388.466015625,218.51979098753964L396.73125000000005,209.9391473006796L404.99648437499997,214.38712474999L413.26171875,205.60882238934005L421.526953125,192.5200385777847L429.7921875,188.47485026619702L438.057421875,177.13682818753915L446.32265625,180.539674413654L454.587890625,163.75994101078228L462.85312500000003,148.09829778570398L471.11835937499995,140.1701504907579L479.38359375,149.2202721127585L487.64882812499997,159.37236296367107L495.9140625,148.83182686906065L504.179296875,147.64841430325112L512.4445312500001,152.50768494559546L520.709765625,174.56923764029855L528.975,177.7043697048753L537.240234375,190.55964566548158L545.5054687500001,204.24457353487887L553.7707031250001,223.3575218475368L562.0359374999999,230.61087915854932L570.3011718749999,237.12094158537315L578.56640625,232.46696063381876L586.831640625,223.10563092574566L595.096875,231.8306536963832L603.3621093749999,229.52126926250762L611.62734375,220.71507750876523L619.892578125,192.83472832344083L628.1578125,184.7794234337174L636.4230468750001,164.59015406023042L644.68828125,154.79000152704737L652.953515625,169.50782118988784L661.21875,171.62105635029636L669.4839843750001,165.94877017381418L677.7492187500001,175.31198937701578L686.0144531249999,177.15992089893678L694.2796874999999,186.69977281302153L702.544921875,192.42368396147234L710.81015625,194.4185719214058L719.075390625,214.67114315284343L727.3406249999999,230.00515566543208L735.605859375,235.8649135924633L743.87109375,250.6271842186549L752.136328125,258.4362046560043L760.4015625000001,261.9523116441441L768.666796875,263.2026369864865L776.93203125,270.1196691420206L785.197265625,265.66683039368183L793.4625000000001,250.82918753619137L801.7277343750001,247.88478283532456L809.9929687499999,241.7945080762169L818.2582031249999,217.20175476971363L826.5234375,208.94268713362325L834.788671875,209.42726279564357L843.05390625,205.3061737673631L851.3191406249999,202.3537042604178L859.584375,205.59850497424168L867.849609375,202.39201416729534L876.11484375,213.22899463596403L884.3800781250001,211.74979395121179L892.6453125,218.61518114423117L900.910546875,221.5919857312164" style="fill: none;" fill="none"></path></g></g></g></g><g opacity="0.2"><g><g><g><path stroke="rgb(0, 153, 136)" stroke-width="2px" d="M82.65234375,337.14799215143375L90.91757812499999,317.73181570226495L99.18281250000001,298.84328006397595L107.448046875,269.790625L115.71328125000001,256.1315160231157L123.978515625,253.3733710202304L132.24375,243.46817578402434L140.50898437499998,239.7772787614302L148.77421875,230.4840909090909L157.039453125,214.918556248058L165.3046875,184.12070416537196L173.56992187499998,205.63636363636363L181.83515624999998,162.414647917314L190.10039062500002,103.79739886197174L198.36562500000002,76.82802158702505L206.630859375,125.34025226939809L214.89609375,86.82425114024768L223.161328125,116.77207045121625L231.42656250000002,128.27792954878373L239.691796875,111.87598523226652L247.95703125,43.41211249611596L256.22226562500003,34.27272727272729L264.4875,34.27272727272729L272.75273437500005,34.27272727272729L281.01796874999997,34.27272727272729L289.283203125,34.27272727272729L297.5484375,34.27272727272729L305.813671875,34.27272727272729L314.07890625,34.27272727272729L322.344140625,34.27272727272729L330.609375,34.27272727272729L338.87460937500003,34.27272727272729L347.13984374999995,34.27272727272729L355.405078125,45.696978412974985L363.67031249999997,45.125748859752306L371.935546875,73.4007488597523L380.20078125000003,86.17143977772105L388.466015625,104.77661590576173L396.73125000000005,117.26169204711914L404.99648437499997,129.5019443165172L413.26171875,128.52272727272728L421.526953125,130.48116136030717L429.7921875,135.80568181818182L438.057421875,146.73011363636363L446.32265625,143.94545454545454L454.587890625,152.2994318181818L462.85312500000003,157.4403409090909L471.11835937499995,155.72670454545454L479.38359375,128.7369318181818L487.64882812499997,102.08376249833539L495.9140625,83.96818181818183L504.179296875,66.2606147766113L512.4445312500001,47.69620340520686L520.709765625,43.98334204933859L528.975,38.84243295842953L537.240234375,43.98334204933859L545.5054687500001,47.41061477661134L553.7707031250001,43.12652386752043L562.0359374999999,40.84165795066141L570.3011718749999,45.696978412974985L578.56640625,36.84318181818183L586.831640625,38.84243295842953L595.096875,40.55606932206588L603.3621093749999,47.125L611.62734375,42.55529431429776L619.892578125,34.27272727272729L628.1578125,39.98483976884321L636.4230468750001,37.12879659479313L644.68828125,37.98561477661133L652.953515625,34.27272727272729L661.21875,34.27272727272729L669.4839843750001,34.27272727272729L677.7492187500001,34.27272727272729L686.0144531249999,34.27272727272729L694.2796874999999,34.27272727272729L702.544921875,34.27272727272729L710.81015625,34.27272727272729L719.075390625,34.27272727272729L727.3406249999999,34.27272727272729L735.605859375,34.27272727272729L743.87109375,34.27272727272729L752.136328125,34.27272727272729L760.4015625000001,34.27272727272729L768.666796875,34.27272727272729L776.93203125,34.27272727272729L785.197265625,34.27272727272729L793.4625000000001,34.27272727272729L801.7277343750001,34.27272727272729L809.9929687499999,34.27272727272729L818.2582031249999,34.27272727272729L826.5234375,38.271203405206855L834.788671875,37.414385223388656L843.05390625,41.69847613247956L851.3191406249999,53.40834204933859L859.584375,84.25379659479313L867.849609375,102.57338409423829L876.11484375,104.0421965859153L884.3800781250001,80.82652386752042L892.6453125,93.51558068015359L900.910546875,101.34934317848898" style="fill: none;" fill="none"></path></g><g><path stroke="rgb(238, 51, 119)" stroke-width="2px" d="M82.65234375,337.14799215143375L90.91757812499999,319.4218207966197L99.18281250000001,305.31288096688013L107.448046875,279.0371190331199L115.71328125000001,276.09705574729225L123.978515625,270.3513365138661L132.24375,253.98539147810502L140.50898437499998,242.1500020113858L148.77421875,176.50454545454545L157.039453125,175.55252234719015L165.3046875,172.31565947099165L173.56992187499998,149.7289772727273L181.83515624999998,106.24545454545456L190.10039062500002,117.99611136696555L198.36562500000002,113.58962159590287L206.630859375,131.70520227605647L214.89609375,135.80568181818182L223.161328125,126.80909090909088L231.42656250000002,118.73053068681197L239.691796875,140.08977272727273L247.95703125,127.29871250499379L256.22226562500003,126.31946931318804L264.4875,39.69925114024768L272.75273437500005,41.69847613247956L281.01796874999997,36.271978412974974L289.283203125,42.55529431429776L297.5484375,37.414385223388656L305.813671875,34.27272727272729L314.07890625,49.981069322065885L322.344140625,85.1921965859153L330.609375,67.68863636363638L338.87460937500003,97.67727272727271L347.13984374999995,81.68334204933862L355.405078125,85.11061477661133L363.67031249999997,104.0421965859153L371.935546875,120.93376249833541L380.20078125000003,93.51558068015359L388.466015625,55.40756704157047L396.73125000000005,34.27272727272729L404.99648437499997,34.27272727272729L413.26171875,34.27272727272729L421.526953125,34.27272727272729L429.7921875,34.27272727272729L438.057421875,34.27272727272729L446.32265625,34.27272727272729L454.587890625,87.64025226939806L462.85312500000003,168.5075801155784L471.11835937499995,160.86761363636364L479.38359375,174.02929583462802L487.64882812499997,192.09863374883477L495.9140625,184.9013662511652L504.179296875,194.3263662511652L512.4445312500001,217.63181818181818L520.709765625,235.42726870450107L528.975,233.3181828238747L537.240234375,216.22974850047717L545.5054687500001,218.0991747422652L553.7707031250001,211.40041916587134L562.0359374999999,188.8427220431241L570.3011718749999,181.0742380662398L578.56640625,174.60049923983487L586.831640625,172.12524961991744L595.096875,157.22613636363636L603.3621093749999,158.93977272727275L611.62734375,140.73238636363635L619.892578125,136.66250000000002L628.1578125,128.7675249966708L636.4230468750001,106.97987386530097L644.68828125,98.9012874950062L652.953515625,73.11516023115676L661.21875,67.40302158702504L669.4839843750001,61.40529431429778L677.7492187500001,64.83256704157048L686.0144531249999,73.11516023115676L694.2796874999999,81.11211249611594L702.544921875,107.2246715892445L710.81015625,112.61037840409712L719.075390625,125.82987386530095L727.3406249999999,138.80454545454546L735.605859375,138.80454545454546L743.87109375,158.2971590909091L752.136328125,162.414647917314L760.4015625000001,158.08295454545456L768.666796875,163.3666710246693L776.93203125,148.65795454545454L785.197265625,90.82272727272729L793.4625000000001,43.69772727272729L801.7277343750001,34.27272727272729L809.9929687499999,34.27272727272729L818.2582031249999,83.11136363636363L826.5234375,34.27272727272729L834.788671875,34.27272727272729L843.05390625,34.27272727272729L851.3191406249999,34.27272727272729L859.584375,34.27272727272729L867.849609375,34.27272727272729L876.11484375,34.27272727272729L884.3800781250001,34.27272727272729L892.6453125,34.27272727272729L900.910546875,34.27272727272729" style="fill: none;" fill="none"></path></g><g><path stroke="rgb(51, 187, 238)" stroke-width="2px" d="M82.65234375,337.14799215143375L90.91757812499999,308.1803638978438L99.18281250000001,311.81835041046145L107.448046875,298.4064055529508L115.71328125000001,308.1118168744174L123.978515625,289.4331844329834L132.24375,275.18983726501466L140.50898437499998,280.46515369415283L148.77421875,268.93380681818184L157.039453125,258.64485022804956L165.3046875,255.33181818181816L173.56992187499998,263.4715909090909L181.83515624999998,245.05L190.10039062500002,223.91514715714888L198.36562500000002,233.76855624805796L206.630859375,256.58847874728116L214.89609375,226.62840909090906L223.161328125,253.61818181818182L231.42656250000002,202.98801415183326L239.691796875,222.113640386408L247.95703125,237.1409050681374L256.22226562500003,236.2181808124889L264.4875,207.97314643859863L272.75273437500005,95.4740147677335L281.01796874999997,119.22012613469906L289.283203125,160.6534090909091L297.5484375,137.0909090909091L305.813671875,177.45656856190075L314.07890625,162.414647917314L322.344140625,174.02929583462802L330.609375,169.64999999999998L338.87460937500003,197.925L347.13984374999995,185.83434052900836L355.405078125,202.03772988752885L363.67031249999997,235.82273129549893L371.935546875,233.05454545454546L380.20078125000003,244.39091311368074L388.466015625,203.23727011247112L396.73125000000005,197.0681818181818L404.99648437499997,221.05909090909094L413.26171875,192.4413688659668L421.526953125,172.88686287619853L429.7921875,182.40706780173562L438.057421875,160.1297950744629L446.32265625,185.643943751942L454.587890625,138.59034090909088L462.85312500000003,124.60583294955168L471.11835937499995,128.27792954878373L479.38359375,162.79545454545453L487.64882812499997,174.60049923983487L495.9140625,133.0210227272727L504.179296875,145.87329545454546L512.4445312500001,159.7965909090909L520.709765625,207.66156668229536L528.975,182.40706780173562L537.240234375,209.84255960637876L545.5054687500001,224.77196533896708L553.7707031250001,252.02694431651722L562.0359374999999,241.49091512506658L570.3011718749999,246.8860352256081L578.56640625,225.4859892064875L586.831640625,209.06363636363636L595.096875,244.9181878523393L603.3621093749999,226.05719261169435L611.62734375,207.50578987815166L619.892578125,151.01420454545453L628.1578125,172.69646609913218L636.4230468750001,134.30624999999998L644.68828125,140.08977272727273L652.953515625,191.5845506841486L661.21875,174.79090909090908L669.4839843750001,157.4403409090909L677.7492187500001,189.35681818181817L686.0144531249999,179.9318181818182L694.2796874999999,201.00955068414862L702.544921875,201.00955068414862L710.81015625,197.4109038613059L719.075390625,245.05L727.3406249999999,253.00617443431508L735.605859375,244.65455048301L743.87109375,272.7705901579423L752.136328125,270.1497353120284L760.4015625000001,267.2264721263539L768.666796875,265.078125L776.93203125,280.49521737532183L785.197265625,258.98757227117363L793.4625000000001,228.5727232499556L801.7277343750001,243.46817578402434L809.9929687499999,232.6590959375555L818.2582031249999,180.3126248099587L826.5234375,196.55408567948774L834.788671875,210.15412628867412L843.05390625,199.1245402249423L851.3191406249999,197.925L859.584375,210.46570604497737L867.849609375,197.58227795687586L876.11484375,229.48446533896708L884.3800781250001,209.53099292408336L892.6453125,228.91326193376023L900.910546875,226.05719261169435" style="fill: none;" fill="none"></path></g></g></g></g></g></g><g transform="translate(41, 377)" clip-path="url(#clip_1)"><clipPath id="clip_1"><rect width="991" height="23"></rect></clipPath><g><g><line x1="0" y1="0" x2="0" y2="5" style="visibility: inherit;" fill="rgb(0, 0, 0)" stroke="rgb(204, 204, 204)" stroke-width="1px"></line><line x1="82.65234375" y1="0" x2="82.65234375" y2="5" style="visibility: inherit;" fill="rgb(0, 0, 0)" stroke="rgb(204, 204, 204)" stroke-width="1px"></line><line x1="165.3046875" y1="0" x2="165.3046875" y2="5" style="visibility: inherit;" fill="rgb(0, 0, 0)" stroke="rgb(204, 204, 204)" stroke-width="1px"></line><line x1="247.95703125" y1="0" x2="247.95703125" y2="5" style="visibility: inherit;" fill="rgb(0, 0, 0)" stroke="rgb(204, 204, 204)" stroke-width="1px"></line><line x1="330.609375" y1="0" x2="330.609375" y2="5" style="visibility: inherit;" fill="rgb(0, 0, 0)" stroke="rgb(204, 204, 204)" stroke-width="1px"></line><line x1="413.26171875" y1="0" x2="413.26171875" y2="5" style="visibility: inherit;" fill="rgb(0, 0, 0)" stroke="rgb(204, 204, 204)" stroke-width="1px"></line><line x1="495.9140625" y1="0" x2="495.9140625" y2="5" style="visibility: inherit;" fill="rgb(0, 0, 0)" stroke="rgb(204, 204, 204)" stroke-width="1px"></line><line x1="578.56640625" y1="0" x2="578.56640625" y2="5" style="visibility: inherit;" fill="rgb(0, 0, 0)" stroke="rgb(204, 204, 204)" stroke-width="1px"></line><line x1="661.21875" y1="0" x2="661.21875" y2="5" style="visibility: inherit;" fill="rgb(0, 0, 0)" stroke="rgb(204, 204, 204)" stroke-width="1px"></line><line x1="743.87109375" y1="0" x2="743.87109375" y2="5" style="visibility: inherit;" fill="rgb(0, 0, 0)" stroke="rgb(204, 204, 204)" stroke-width="1px"></line><line x1="826.5234375" y1="0" x2="826.5234375" y2="5" style="visibility: inherit;" fill="rgb(0, 0, 0)" stroke="rgb(204, 204, 204)" stroke-width="1px"></line><line x1="909.17578125" y1="0" x2="909.17578125" y2="5" style="visibility: inherit;" fill="rgb(0, 0, 0)" stroke="rgb(204, 204, 204)" stroke-width="1px"></line><line x1="991.828125" y1="0" x2="991.828125" y2="5" style="visibility: inherit;" fill="rgb(0, 0, 0)" stroke="rgb(204, 204, 204)" stroke-width="1px"></line></g><g transform="translate(0, 8)"><text x="0" y="0" dx="0em" dy="0.95em" style="text-anchor: middle; visibility: hidden; font-family: Roboto, sans-serif; font-size: 12px; font-weight: 200;" fill="rgb(255, 255, 255)" stroke="none" stroke-width="1px">-10</text><text x="82.65234375" y="0" dx="0em" dy="0.95em" style="text-anchor: middle; visibility: inherit; font-family: Roboto, sans-serif; font-size: 12px; font-weight: 200;" fill="rgb(255, 255, 255)" stroke="none" stroke-width="1px">0</text><text x="165.3046875" y="0" dx="0em" dy="0.95em" style="text-anchor: middle; visibility: inherit; font-family: Roboto, sans-serif; font-size: 12px; font-weight: 200;" fill="rgb(255, 255, 255)" stroke="none" stroke-width="1px">10</text><text x="247.95703125" y="0" dx="0em" dy="0.95em" style="text-anchor: middle; visibility: inherit; font-family: Roboto, sans-serif; font-size: 12px; font-weight: 200;" fill="rgb(255, 255, 255)" stroke="none" stroke-width="1px">20</text><text x="330.609375" y="0" dx="0em" dy="0.95em" style="text-anchor: middle; visibility: inherit; font-family: Roboto, sans-serif; font-size: 12px; font-weight: 200;" fill="rgb(255, 255, 255)" stroke="none" stroke-width="1px">30</text><text x="413.26171875" y="0" dx="0em" dy="0.95em" style="text-anchor: middle; visibility: inherit; font-family: Roboto, sans-serif; font-size: 12px; font-weight: 200;" fill="rgb(255, 255, 255)" stroke="none" stroke-width="1px">40</text><text x="495.9140625" y="0" dx="0em" dy="0.95em" style="text-anchor: middle; visibility: inherit; font-family: Roboto, sans-serif; font-size: 12px; font-weight: 200;" fill="rgb(255, 255, 255)" stroke="none" stroke-width="1px">50</text><text x="578.56640625" y="0" dx="0em" dy="0.95em" style="text-anchor: middle; visibility: inherit; font-family: Roboto, sans-serif; font-size: 12px; font-weight: 200;" fill="rgb(255, 255, 255)" stroke="none" stroke-width="1px">60</text><text x="661.21875" y="0" dx="0em" dy="0.95em" style="text-anchor: middle; visibility: inherit; font-family: Roboto, sans-serif; font-size: 12px; font-weight: 200;" fill="rgb(255, 255, 255)" stroke="none" stroke-width="1px">70</text><text x="743.87109375" y="0" dx="0em" dy="0.95em" style="text-anchor: middle; visibility: inherit; font-family: Roboto, sans-serif; font-size: 12px; font-weight: 200;" fill="rgb(255, 255, 255)" stroke="none" stroke-width="1px">80</text><text x="826.5234375" y="0" dx="0em" dy="0.95em" style="text-anchor: middle; visibility: inherit; font-family: Roboto, sans-serif; font-size: 12px; font-weight: 200;" fill="rgb(255, 255, 255)" stroke="none" stroke-width="1px">90</text><text x="909.17578125" y="0" dx="0em" dy="0.95em" style="text-anchor: middle; visibility: inherit; font-family: Roboto, sans-serif; font-size: 12px; font-weight: 200;" fill="rgb(255, 255, 255)" stroke="none" stroke-width="1px">100</text><text x="991.828125" y="0" dx="0em" dy="0.95em" style="text-anchor: middle; visibility: hidden; font-family: Roboto, sans-serif; font-size: 12px; font-weight: 200;" fill="rgb(255, 255, 255)" stroke="none" stroke-width="1px">110</text></g><line x1="0" y1="0" x2="991.828125" y2="0" fill="rgb(0, 0, 0)" stroke="rgb(204, 204, 204)" stroke-width="1px"></line></g></g></g></g></svg>