<svg viewBox="0 0 1033 400" xmlns="http://www.w3.org/2000/svg"><g><g><g><g><g><line x1="41.171875" y1="377" x2="36.171875" y2="377" style="visibility: inherit;" fill="rgb(0, 0, 0)" stroke="rgb(204, 204, 204)" stroke-width="1px"></line><line x1="41.171875" y1="342.7272727272727" x2="36.171875" y2="342.7272727272727" style="visibility: inherit;" fill="rgb(0, 0, 0)" stroke="rgb(204, 204, 204)" stroke-width="1px"></line><line x1="41.171875" y1="308.45454545454544" x2="36.171875" y2="308.45454545454544" style="visibility: inherit;" fill="rgb(0, 0, 0)" stroke="rgb(204, 204, 204)" stroke-width="1px"></line><line x1="41.171875" y1="274.1818181818182" x2="36.171875" y2="274.1818181818182" style="visibility: inherit;" fill="rgb(0, 0, 0)" stroke="rgb(204, 204, 204)" stroke-width="1px"></line><line x1="41.171875" y1="239.9090909090909" x2="36.171875" y2="239.9090909090909" style="visibility: inherit;" fill="rgb(0, 0, 0)" stroke="rgb(204, 204, 204)" stroke-width="1px"></line><line x1="41.171875" y1="205.63636363636363" x2="36.171875" y2="205.63636363636363" style="visibility: inherit;" fill="rgb(0, 0, 0)" stroke="rgb(204, 204, 204)" stroke-width="1px"></line><line x1="41.171875" y1="171.36363636363637" x2="36.171875" y2="171.36363636363637" style="visibility: inherit;" fill="rgb(0, 0, 0)" stroke="rgb(204, 204, 204)" stroke-width="1px"></line><line x1="41.171875" y1="137.0909090909091" x2="36.171875" y2="137.0909090909091" style="visibility: inherit;" fill="rgb(0, 0, 0)" stroke="rgb(204, 204, 204)" stroke-width="1px"></line><line x1="41.171875" y1="102.81818181818181" x2="36.171875" y2="102.81818181818181" style="visibility: inherit;" fill="rgb(0, 0, 0)" stroke="rgb(204, 204, 204)" stroke-width="1px"></line><line x1="41.171875" y1="68.54545454545453" x2="36.171875" y2="68.54545454545453" style="visibility: inherit;" fill="rgb(0, 0, 0)" stroke="rgb(204, 204, 204)" stroke-width="1px"></line><line x1="41.171875" y1="34.27272727272729" x2="36.171875" y2="34.27272727272729" style="visibility: inherit;" fill="rgb(0, 0, 0)" stroke="rgb(204, 204, 204)" stroke-width="1px"></line><line x1="41.171875" y1="0" x2="36.171875" y2="0" style="visibility: inherit;" fill="rgb(0, 0, 0)" stroke="rgb(204, 204, 204)" stroke-width="1px"></line></g><g transform="translate(31.171875, 0)"><text x="0" y="377" dx="0em" dy="0.3em" style="text-anchor: end; visibility: hidden; font-family: Roboto, sans-serif; font-size: 12px; font-weight: 200;" fill="rgb(255, 255, 255)" stroke="none" stroke-width="1px">0</text><text x="0" y="342.7272727272727" dx="0em" dy="0.3em" style="text-anchor: end; visibility: inherit; font-family: Roboto, sans-serif; font-size: 12px; font-weight: 200;" fill="rgb(255, 255, 255)" stroke="none" stroke-width="1px">20</text><text x="0" y="308.45454545454544" dx="0em" dy="0.3em" style="text-anchor: end; visibility: inherit; font-family: Roboto, sans-serif; font-size: 12px; font-weight: 200;" fill="rgb(255, 255, 255)" stroke="none" stroke-width="1px">40</text><text x="0" y="274.1818181818182" dx="0em" dy="0.3em" style="text-anchor: end; visibility: inherit; font-family: Roboto, sans-serif; font-size: 12px; font-weight: 200;" fill="rgb(255, 255, 255)" stroke="none" stroke-width="1px">60</text><text x="0" y="239.9090909090909" dx="0em" dy="0.3em" style="text-anchor: end; visibility: inherit; font-family: Roboto, sans-serif; font-size: 12px; font-weight: 200;" fill="rgb(255, 255, 255)" stroke="none" stroke-width="1px">80</text><text x="0" y="205.63636363636363" dx="0em" dy="0.3em" style="text-anchor: end; visibility: inherit; font-family: Roboto, sans-serif; font-size: 12px; font-weight: 200;" fill="rgb(255, 255, 255)" stroke="none" stroke-width="1px">100</text><text x="0" y="171.36363636363637" dx="0em" dy="0.3em" style="text-anchor: end; visibility: inherit; font-family: Roboto, sans-serif; font-size: 12px; font-weight: 200;" fill="rgb(255, 255, 255)" stroke="none" stroke-width="1px">120</text><text x="0" y="137.0909090909091" dx="0em" dy="0.3em" style="text-anchor: end; visibility: inherit; font-family: Roboto, sans-serif; font-size: 12px; font-weight: 200;" fill="rgb(255, 255, 255)" stroke="none" stroke-width="1px">140</text><text x="0" y="102.81818181818181" dx="0em" dy="0.3em" style="text-anchor: end; visibility: inherit; font-family: Roboto, sans-serif; font-size: 12px; font-weight: 200;" fill="rgb(255, 255, 255)" stroke="none" stroke-width="1px">160</text><text x="0" y="68.54545454545453" dx="0em" dy="0.3em" style="text-anchor: end; visibility: inherit; font-family: Roboto, sans-serif; font-size: 12px; font-weight: 200;" fill="rgb(255, 255, 255)" stroke="none" stroke-width="1px">180</text><text x="0" y="34.27272727272729" dx="0em" dy="0.3em" style="text-anchor: end; visibility: inherit; font-family: Roboto, sans-serif; font-size: 12px; font-weight: 200;" fill="rgb(255, 255, 255)" stroke="none" stroke-width="1px">200</text><text x="0" y="0" dx="0em" dy="0.3em" style="text-anchor: end; visibility: hidden; font-family: Roboto, sans-serif; font-size: 12px; font-weight: 200;" fill="rgb(255, 255, 255)" stroke="none" stroke-width="1px">220</text></g><line x1="41.171875" y1="0" x2="41.171875" y2="377" fill="rgb(0, 0, 0)" stroke="rgb(204, 204, 204)" stroke-width="1px"></line></g></g><g transform="translate(41, 0)" clip-path="url(#clip_0)"><clipPath id="clip_0"><rect width="991" height="377"></rect></clipPath><g><g><g><line x1="0" y1="0" x2="0" y2="377" fill="rgb(0, 0, 0)" stroke="rgb(189, 189, 189)" stroke-width="1px" opacity="0.25"></line><line x1="82.65234375" y1="0" x2="82.65234375" y2="377" fill="rgb(0, 0, 0)" stroke="rgb(189, 189, 189)" stroke-width="1px" opacity="0.25"></line><line x1="165.3046875" y1="0" x2="165.3046875" y2="377" fill="rgb(0, 0, 0)" stroke="rgb(189, 189, 189)" stroke-width="1px" opacity="0.25"></line><line x1="247.95703125" y1="0" x2="247.95703125" y2="377" fill="rgb(0, 0, 0)" stroke="rgb(189, 189, 189)" stroke-width="1px" opacity="0.25"></line><line x1="330.609375" y1="0" x2="330.609375" y2="377" fill="rgb(0, 0, 0)" stroke="rgb(189, 189, 189)" stroke-width="1px" opacity="0.25"></line><line x1="413.26171875" y1="0" x2="413.26171875" y2="377" fill="rgb(0, 0, 0)" stroke="rgb(189, 189, 189)" stroke-width="1px" opacity="0.25"></line><line x1="495.9140625" y1="0" x2="495.9140625" y2="377" fill="rgb(0, 0, 0)" stroke="rgb(189, 189, 189)" stroke-width="1px" opacity="0.25"></line><line x1="578.56640625" y1="0" x2="578.56640625" y2="377" fill="rgb(0, 0, 0)" stroke="rgb(189, 189, 189)" stroke-width="1px" opacity="0.25"></line><line x1="661.21875" y1="0" x2="661.21875" y2="377" fill="rgb(0, 0, 0)" stroke="rgb(189, 189, 189)" stroke-width="1px" opacity="0.25"></line><line x1="743.87109375" y1="0" x2="743.87109375" y2="377" fill="rgb(0, 0, 0)" stroke="rgb(189, 189, 189)" stroke-width="1px" opacity="0.25"></line><line x1="826.5234375" y1="0" x2="826.5234375" y2="377" fill="rgb(0, 0, 0)" stroke="rgb(189, 189, 189)" stroke-width="1px" opacity="0.25"></line><line x1="909.17578125" y1="0" x2="909.17578125" y2="377" fill="rgb(0, 0, 0)" stroke="rgb(189, 189, 189)" stroke-width="1px" opacity="0.25"></line><line x1="991.828125" y1="0" x2="991.828125" y2="377" fill="rgb(0, 0, 0)" stroke="rgb(189, 189, 189)" stroke-width="1px" opacity="0.25"></line></g><g><line x1="0" y1="377" x2="991.828125" y2="377" fill="rgb(0, 0, 0)" stroke="rgb(189, 189, 189)" stroke-width="1px" opacity="0.25"></line><line x1="0" y1="342.7272727272727" x2="991.828125" y2="342.7272727272727" fill="rgb(0, 0, 0)" stroke="rgb(189, 189, 189)" stroke-width="1px" opacity="0.25"></line><line x1="0" y1="308.45454545454544" x2="991.828125" y2="308.45454545454544" fill="rgb(0, 0, 0)" stroke="rgb(189, 189, 189)" stroke-width="1px" opacity="0.25"></line><line x1="0" y1="274.1818181818182" x2="991.828125" y2="274.1818181818182" fill="rgb(0, 0, 0)" stroke="rgb(189, 189, 189)" stroke-width="1px" opacity="0.25"></line><line x1="0" y1="239.9090909090909" x2="991.828125" y2="239.9090909090909" fill="rgb(0, 0, 0)" stroke="rgb(189, 189, 189)" stroke-width="1px" opacity="0.25"></line><line x1="0" y1="205.63636363636363" x2="991.828125" y2="205.63636363636363" fill="rgb(0, 0, 0)" stroke="rgb(189, 189, 189)" stroke-width="1px" opacity="0.25"></line><line x1="0" y1="171.36363636363637" x2="991.828125" y2="171.36363636363637" fill="rgb(0, 0, 0)" stroke="rgb(189, 189, 189)" stroke-width="1px" opacity="0.25"></line><line x1="0" y1="137.0909090909091" x2="991.828125" y2="137.0909090909091" fill="rgb(0, 0, 0)" stroke="rgb(189, 189, 189)" stroke-width="1px" opacity="0.25"></line><line x1="0" y1="102.81818181818181" x2="991.828125" y2="102.81818181818181" fill="rgb(0, 0, 0)" stroke="rgb(189, 189, 189)" stroke-width="1px" opacity="0.25"></line><line x1="0" y1="68.54545454545453" x2="991.828125" y2="68.54545454545453" fill="rgb(0, 0, 0)" stroke="rgb(189, 189, 189)" stroke-width="1px" opacity="0.25"></line><line x1="0" y1="34.27272727272729" x2="991.828125" y2="34.27272727272729" fill="rgb(0, 0, 0)" stroke="rgb(189, 189, 189)" stroke-width="1px" opacity="0.25"></line><line x1="0" y1="0" x2="991.828125" y2="0" fill="rgb(0, 0, 0)" stroke="rgb(189, 189, 189)" stroke-width="1px" opacity="0.25"></line></g></g></g><g><g><line x1="0" y1="377" x2="991.828125" y2="377" fill="rgb(0, 0, 0)" stroke="rgb(153, 153, 153)" stroke-width="1.5px"></line></g></g><g><g><line x1="82.65234375" y1="0" x2="82.65234375" y2="377" fill="rgb(0, 0, 0)" stroke="rgb(153, 153, 153)" stroke-width="1.5px"></line></g></g><g><g><g><g><g><path stroke="rgb(0, 119, 187)" stroke-width="2px" d="M82.65234375,337.1817557768388L90.91757812499999,324.001595102657L99.18281250000001,314.89164557448123L107.448046875,300.2833067626239L115.71328125000001,286.9370432924152L123.978515625,277.9155573362951L132.24375,261.70426608982706L140.50898437499998,238.92131924826433L148.77421875,223.28370702753173L157.039453125,181.41664661139194L165.3046875,143.18966733964444L173.56992187499998,129.45310343958622L181.83515624999998,117.03611483526798L190.10039062500002,99.91916840736808L198.36562500000002,91.92773962731802L206.630859375,78.76302971500154L214.89609375,69.87631360482914L223.161328125,59.90477867245919L231.42656250000002,50.3368296257266L239.691796875,45.12372213956742L247.95703125,41.653244842924934L256.22226562500003,38.70099895688248L264.4875,36.929676294550006L272.75273437500005,35.866891649942L281.01796874999997,35.22922408614885L289.283203125,34.84662470813559L297.5484375,34.61706549902062L305.813671875,34.47933012392078L314.07890625,34.396688952993706L322.344140625,34.34710426992528L330.609375,34.31735346709982L338.87460937500003,34.299502987930175L347.13984374999995,34.28879270133755L355.405078125,34.28236652970933L363.67031249999997,34.27851082685023L371.935546875,34.27619740517722L380.20078125000003,34.27480935218863L388.466015625,34.27397652040104L396.73125000000005,34.273476821330455L404.99648437499997,34.27317700188876L413.26171875,34.272997110224075L421.526953125,34.82652634368239L429.7921875,34.60500671523635L438.057421875,34.47209493820973L446.32265625,34.89326018118696L454.587890625,35.488686599693985L462.85312500000003,35.00230286888911L471.11835937499995,34.710472630417804L479.38359375,34.561742146474884L487.64882812499997,37.66249902881016L495.9140625,39.232950744530925L504.179296875,40.25431429215838L512.4445312500001,37.86167948438177L520.709765625,36.42609859971846L528.975,35.56475006892143L537.240234375,35.04794095044357L545.5054687500001,34.816947997556575L553.7707031250001,37.20926051217954L562.0359374999999,41.01737127090885L570.3011718749999,42.95951045341896L578.56640625,43.83480200846839L586.831640625,42.039968091400254L595.096875,39.697618827585195L603.3621093749999,37.52766220564202L611.62734375,36.225688232476166L619.892578125,35.444503848576595L628.1578125,35.002160877372155L636.4230468750001,36.160389044622846L644.68828125,37.46168797222823L652.953515625,45.097012783336936L661.21875,51.5876926719997L669.4839843750001,61.08897779691431L677.7492187500001,75.25995930443587L686.0144531249999,86.15472558266154L694.2796874999999,91.13963785647725L702.544921875,86.85287073767896L710.81015625,81.27899733385381L719.075390625,66.87921899579348L727.3406249999999,53.91571482476655L735.605859375,46.50669679480667L743.87109375,44.43401968599267L752.136328125,48.163379035716716L760.4015625000001,64.15324023992257L768.666796875,81.14006914395357L776.93203125,104.24394163840518L785.197265625,128.18281616324109L793.4625000000001,137.01322596392478L801.7277343750001,139.2118128366557L809.9929687499999,138.24920542771252L818.2582031249999,127.69100610574861L826.5234375,111.25291157471517L834.788671875,88.55935947146264L843.05390625,67.42471141929448L851.3191406249999,54.50664503339486L859.584375,46.51852764725638L867.849609375,41.62020749744474L876.11484375,39.234852575748434L884.3800781250001,37.96182465912981L892.6453125,37.67255255914972L900.910546875,37.3935291218269" style="fill: none;" fill="none"></path></g><g><path stroke="rgb(255, 112, 67)" stroke-width="2px" d="M82.65234375,337.1817557768388L90.91757812499999,323.8759457154708L99.18281250000001,311.66758722153133L107.448046875,297.08637344467445L115.71328125000001,284.3013684824178L123.978515625,266.9917721917557L132.24375,251.2994163090247L140.50898437499998,227.6046880823039L148.77421875,186.7572923938622L157.039453125,159.16372597856045L165.3046875,123.3986728441379L173.56992187499998,101.82659963626824L181.83515624999998,91.57347686141836L190.10039062500002,76.53681842345007L198.36562500000002,61.04753308374574L206.630859375,51.09935133158226L214.89609375,45.211344647054396L223.161328125,42.101041187819554L231.42656250000002,41.60605392294116L239.691796875,39.305368832553754L247.95703125,38.90048997232339L256.22226562500003,45.14798874067078L264.4875,54.335683984226804L272.75273437500005,57.742921535992735L281.01796874999997,49.67300511952652L289.283203125,45.67470051492195L297.5484375,41.11390655011538L305.813671875,38.37743315870767L314.07890625,36.73555019935304L322.344140625,35.75042081091632L330.609375,39.16662140337915L338.87460937500003,37.20906359532304L347.13984374999995,36.03452901019837L355.405078125,35.329808295018886L363.67031249999997,34.90697587883345L371.935546875,34.653276433774224L380.20078125000003,34.50105676841339L388.466015625,34.40972496979981L396.73125000000005,34.407650750030484L404.99648437499997,35.25004580115319L413.26171875,38.33911597859746L421.526953125,47.508469591571014L429.7921875,59.70508247978881L438.057421875,71.99219821603172L446.32265625,86.7002621129661L454.587890625,94.53975954099587L462.85312500000003,97.67976481562415L471.11835937499995,94.41143743599852L479.38359375,79.21608301470587L487.64882812499997,70.75894041378002L495.9140625,62.38432551309785L504.179296875,52.32605307150128L512.4445312500001,63.942903848869214L520.709765625,53.946654618437464L528.975,46.07708368014848L537.240234375,41.355341117178185L545.5054687500001,38.52229557939719L553.7707031250001,36.822468256729L562.0359374999999,35.802571863128186L570.3011718749999,35.19063402696783L578.56640625,34.82347132527158L586.831640625,34.60317370425394L595.096875,34.47099513164323L603.3621093749999,34.39168798807682L611.62734375,34.344103701936994L619.892578125,34.31555313025309L628.1578125,34.29842278724281L636.4230468750001,34.28814458143662L644.68828125,34.28197765795293L652.953515625,34.27827750386269L661.21875,34.27605741140851L669.4839843750001,34.27472535593602L677.7492187500001,34.27392612265256L686.0144531249999,34.27344658268248L694.2796874999999,34.27315885870039L702.544921875,34.27298622431113L710.81015625,34.27288264367758L719.075390625,34.27282049529749L727.3406249999999,34.272783206269445L735.605859375,34.272760832852555L743.87109375,34.27274740880247L752.136328125,34.272739354372426L760.4015625000001,34.27273452171437L768.666796875,34.27273162211958L776.93203125,34.27272988236267L785.197265625,34.27272883850855L793.4625000000001,35.327277689513195L801.7277343750001,55.514790158851746L809.9929687499999,80.927799654615L818.2582031249999,116.15555524775836L826.5234375,158.79018155674717L834.788671875,195.5823165673269L843.05390625,213.0954225165236L851.3191406249999,225.1285259958206L859.584375,214.5618644933109L867.849609375,206.09139524905385L876.11484375,195.30041613724748L884.3800781250001,187.30384157355056L892.6453125,180.50342948914098L900.910546875,175.14223278115327" style="fill: none;" fill="none"></path></g><g><path stroke="rgb(187, 187, 187)" stroke-width="2px" d="M82.65234375,337.1817557768388L90.91757812499999,328.4380451885137L99.18281250000001,317.05014927055487L107.448046875,308.37486342596503L115.71328125000001,301.9345745296224L123.978515625,293.56914907109046L132.24375,281.0757945441931L140.50898437499998,266.2691449439417L148.77421875,255.32102376505077L157.039453125,243.60175230596684L165.3046875,238.78275105300818L173.56992187499998,238.17060652862776L181.83515624999998,233.3038547668098L190.10039062500002,225.06274808239564L198.36562500000002,202.15126454453656L206.630859375,206.1300650196336L214.89609375,217.62096678683477L223.161328125,217.2063740256483L231.42656250000002,210.0039778349385L239.691796875,163.1478835954402L247.95703125,118.93375427484092L256.22226562500003,95.32636592934836L264.4875,86.17393017822637L272.75273437500005,90.6205129323112L281.01796874999997,98.4906743894096L289.283203125,111.4044003892423L297.5484375,120.51754971279892L305.813671875,125.6427058543139L314.07890625,132.18572646495534L322.344140625,138.44090764313393L330.609375,137.36778141530468L338.87460937500003,142.25363629569304L347.13984374999995,132.48726398594582L355.405078125,102.06157807314716L363.67031249999997,76.84421591943942L371.935546875,59.815620285114434L380.20078125000003,49.59846301692915L388.466015625,43.46816869648543L396.73125000000005,39.78999211878749L404.99648437499997,37.583086177413264L413.26171875,36.25894261447692L421.526953125,35.46445647739475L429.7921875,36.885943395902714L438.057421875,49.59870740271448L446.32265625,74.1268325041481L454.587890625,101.10946983775656L462.85312500000003,123.3584051534421L471.11835937499995,133.14451347358823L479.38359375,144.4736615838395L487.64882812499997,141.74904194872803L495.9140625,139.94290653131083L504.179296875,135.59026310045886L512.4445312500001,124.89090748849705L520.709765625,102.59753449440655L528.975,79.51215625571142L537.240234375,61.73274427610302L545.5054687500001,50.88055485201407L553.7707031250001,44.23742382029847L562.0359374999999,40.25154520126972L570.3011718749999,37.86001802985269L578.56640625,41.11783382705589L586.831640625,40.46252250082336L595.096875,52.310236445273944L603.3621093749999,60.12795716368433L611.62734375,64.51131903143154L619.892578125,66.19841778382695L628.1578125,61.526663196929675L636.4230468750001,58.11430938056017L644.68828125,56.80313108288155L652.953515625,58.39103001136774L661.21875,59.80890073276168L669.4839843750001,60.75755271438173L677.7492187500001,60.812652994262876L686.0144531249999,62.632783613407874L694.2796874999999,64.31239744077199L702.544921875,62.40063518077174L710.81015625,64.27102747076776L719.075390625,61.004904107860135L727.3406249999999,57.11579938166391L735.605859375,55.46779109140066L743.87109375,56.357647838212166L752.136328125,54.68287036907606L760.4015625000001,52.992549342139874L768.666796875,50.861323950099276L776.93203125,47.284063074560635L785.197265625,42.89680067654566L793.4625000000001,42.50534911042844L801.7277343750001,43.90503247540126L809.9929687499999,63.40178646411146L818.2582031249999,83.21875592720623L826.5234375,107.28712494415221L834.788671875,127.10015160889186L843.05390625,141.36113537395997L851.3191406249999,144.54141641502758L859.584375,146.1068577669409L867.849609375,146.32459423003317L876.11484375,143.65003513576497L884.3800781250001,139.82683926327715L892.6453125,135.93189965060657L900.910546875,132.53737415426664" style="fill: none;" fill="none"></path></g></g></g></g><g opacity="0.2"><g><g><g><path stroke="rgb(0, 119, 187)" stroke-width="2px" d="M82.65234375,337.1817557768388L90.91757812499999,316.09349869814787L99.18281250000001,306.1460940274325L107.448046875,283.1039003198797L115.71328125000001,269.5121617057107L123.978515625,265.43559452403673L132.24375,238.52186022671785L140.50898437499998,205.70356403697622L148.77421875,200.2212664517489L157.039453125,119.24894124811345L165.3046875,86.19591432051224L173.56992187499998,108.92301136363638L181.83515624999998,98.451175550981L190.10039062500002,74.2772826454856L198.36562500000002,79.94999008178712L206.630859375,59.02524961991743L214.89609375,56.55000000000001L223.161328125,44.950008045543306L231.42656250000002,35.986363636363635L239.691796875,37.30453740900213L247.95703125,36.44771922718393L256.22226562500003,34.27272727272729L264.4875,34.27272727272729L272.75273437500005,34.27272727272729L281.01796874999997,34.27272727272729L289.283203125,34.27272727272729L297.5484375,34.27272727272729L305.813671875,34.27272727272729L314.07890625,34.27272727272729L322.344140625,34.27272727272729L330.609375,34.27272727272729L338.87460937500003,34.27272727272729L347.13984374999995,34.27272727272729L355.405078125,34.27272727272729L363.67031249999997,34.27272727272729L371.935546875,34.27272727272729L380.20078125000003,34.27272727272729L388.466015625,34.27272727272729L396.73125000000005,34.27272727272729L404.99648437499997,34.27272727272729L413.26171875,34.27272727272729L421.526953125,35.65682019320403L429.7921875,34.27272727272729L438.057421875,34.27272727272729L446.32265625,35.525008045543345L454.587890625,36.3818262273615L462.85312500000003,34.27272727272729L471.11835937499995,34.27272727272729L479.38359375,34.33864642056553L487.64882812499997,42.31363435225055L495.9140625,41.588628318093036L504.179296875,41.78635961359197L512.4445312500001,34.27272727272729L520.709765625,34.27272727272729L528.975,34.27272727272729L537.240234375,34.27272727272729L545.5054687500001,34.47045856822621L553.7707031250001,40.79772928411309L562.0359374999999,46.72953740900214L570.3011718749999,45.87271922718394L578.56640625,45.14773934104224L586.831640625,39.3477172157981L595.096875,36.18409493186257L603.3621093749999,34.27272727272729L611.62734375,34.27272727272729L619.892578125,34.27272727272729L628.1578125,34.33864642056553L636.4230468750001,37.89773129549892L644.68828125,39.41363636363634L652.953515625,56.55000000000001L661.21875,61.323712504993765L669.4839843750001,75.3409054842862L677.7492187500001,96.51643156571824L686.0144531249999,102.49687499999999L694.2796874999999,98.61700626720081L702.544921875,80.42272005948152L710.81015625,72.91818722811612L719.075390625,45.279551488702964L727.3406249999999,34.47045856822621L735.605859375,35.39316974986685L743.87109375,41.32500402277167L752.136328125,53.75741806030272L760.4015625000001,88.13803204623136L768.666796875,106.62031250000001L776.93203125,138.89975038008257L785.197265625,164.09112795049492L793.4625000000001,150.25884066495027L801.7277343750001,142.50969314575195L809.9929687499999,136.80529431429775L818.2582031249999,111.85370712280275L826.5234375,86.59576977816496L834.788671875,54.51903131658379L843.05390625,35.72273934104227L851.3191406249999,35.12954545454544L859.584375,34.53635156804865L867.849609375,34.27272727272729L876.11484375,35.65682019320403L884.3800781250001,36.052282784201886L892.6453125,37.2386444091797L900.910546875,36.97499396584252" style="fill: none;" fill="none"></path></g><g><path stroke="rgb(255, 112, 67)" stroke-width="2px" d="M82.65234375,337.1817557768388L90.91757812499999,315.8924596786499L99.18281250000001,299.9475630673495L107.448046875,279.9388660430908L115.71328125000001,267.6092660036954L123.978515625,243.04636906710542L132.24375,228.85909631902524L140.50898437499998,193.05754685835407L148.77421875,126.51531795154919L157.039453125,118.19049571644176L165.3046875,70.07547954212536L173.56992187499998,69.58588409423828L181.83515624999998,76.22727092396131L190.10039062500002,54.011289145729755L198.36562500000002,37.83181214766068L206.630859375,36.18409493186257L214.89609375,36.3818262273615L223.161328125,37.436375704678625L231.42656250000002,40.86364843195133L239.691796875,35.85455148870295L247.95703125,38.29319388649682L256.22226562500003,54.51903131658379L264.4875,68.11704545454545L272.75273437500005,62.853737501664604L281.01796874999997,37.56818785233931L289.283203125,39.677260658957756L297.5484375,34.27272727272729L305.813671875,34.27272727272729L314.07890625,34.27272727272729L322.344140625,34.27272727272729L330.609375,44.290921159224084L338.87460937500003,34.27272727272729L347.13984374999995,34.27272727272729L355.405078125,34.27272727272729L363.67031249999997,34.27272727272729L371.935546875,34.27272727272729L380.20078125000003,34.27272727272729L388.466015625,34.27272727272729L396.73125000000005,34.40453942038797L404.99648437499997,36.51363837502218L413.26171875,42.972721238569775L421.526953125,61.26249999999999L429.7921875,78.00000180331145L438.057421875,90.42287181507457L446.32265625,108.76235795454544L454.587890625,106.29900568181819L462.85312500000003,102.38977272727273L471.11835937499995,89.50894636674361L479.38359375,56.42305138327858L487.64882812499997,58.07322651256215L495.9140625,49.82240316217597L504.179296875,37.2386444091797L512.4445312500001,81.36818001487038L520.709765625,38.95228077281605L528.975,34.27272727272729L537.240234375,34.27272727272729L545.5054687500001,34.27272727272729L553.7707031250001,34.27272727272729L562.0359374999999,34.27272727272729L570.3011718749999,34.27272727272729L578.56640625,34.27272727272729L586.831640625,34.27272727272729L595.096875,34.27272727272729L603.3621093749999,34.27272727272729L611.62734375,34.27272727272729L619.892578125,34.27272727272729L628.1578125,34.27272727272729L636.4230468750001,34.27272727272729L644.68828125,34.27272727272729L652.953515625,34.27272727272729L661.21875,34.27272727272729L669.4839843750001,34.27272727272729L677.7492187500001,34.27272727272729L686.0144531249999,34.27272727272729L694.2796874999999,34.27272727272729L702.544921875,34.27272727272729L710.81015625,34.27272727272729L719.075390625,34.27272727272729L727.3406249999999,34.27272727272729L735.605859375,34.27272727272729L743.87109375,34.27272727272729L752.136328125,34.27272727272729L760.4015625000001,34.27272727272729L768.666796875,34.27272727272729L776.93203125,34.27272727272729L785.197265625,34.27272727272729L793.4625000000001,36.909100966020084L801.7277343750001,85.79605886285957L809.9929687499999,119.04731389825996L818.2582031249999,168.99718863747339L826.5234375,222.74212102023037L834.788671875,250.77051908319646L843.05390625,239.3650814403187L851.3191406249999,243.17818121476608L859.584375,198.71187223954635L867.849609375,193.38569138266826L876.11484375,179.1139474695379L884.3800781250001,175.30897972800514L892.6453125,170.30281136252663L900.910546875,167.10043771917168" style="fill: none;" fill="none"></path></g><g><path stroke="rgb(187, 187, 187)" stroke-width="2px" d="M82.65234375,337.1817557768388L90.91757812499999,323.1918188355186L99.18281250000001,306.1177691893144L107.448046875,298.1727272727273L115.71328125000001,293.52613334655763L123.978515625,281.99675410877575L132.24375,263.21009767705743L140.50898437499998,244.680907682939L148.77421875,239.1746715892445L157.039453125,226.2L165.3046875,231.59795716025613L173.56992187499998,237.25572100552645L181.83515624999998,226.01961791298604L190.10039062500002,212.71723324168812L198.36562500000002,167.81097082658246L206.630859375,212.09545957391913L214.89609375,234.85245687311345L223.161328125,216.58459014892577L231.42656250000002,199.20148076144133L239.691796875,92.86802506880325L247.95703125,52.61498510187322L256.22226562500003,59.916060222278944L264.4875,72.44545725042168L272.75273437500005,97.29033438942649L281.01796874999997,110.29586063731801L289.283203125,130.7749343178489L297.5484375,134.18725038008256L305.813671875,133.3304321982644L314.07890625,142.00025135387074L322.344140625,147.82367595325817L330.609375,135.75809242942117L338.87460937500003,149.58241764415394L347.13984374999995,117.83770668723368L355.405078125,56.42305138327858L363.67031249999997,39.018173772638484L371.935546875,34.27272727272729L380.20078125000003,34.27272727272729L388.466015625,34.27272727272729L396.73125000000005,34.27272727272729L404.99648437499997,34.27272727272729L413.26171875,34.27272727272729L421.526953125,34.27272727272729L429.7921875,39.018173772638484L438.057421875,68.6678534074263L446.32265625,110.91902014992453L454.587890625,141.5834258339622L462.85312500000003,156.73180812488903L471.11835937499995,147.82367595325817L479.38359375,161.46738374883478L487.64882812499997,137.66211249611595L495.9140625,137.23370340520682L504.179296875,129.06129795421253L512.4445312500001,108.84187407060104L520.709765625,69.1574750033292L528.975,44.88408889770506L537.240234375,35.06362630670719L545.5054687500001,34.602270715886895L553.7707031250001,34.27272727272729L562.0359374999999,34.27272727272729L570.3011718749999,34.27272727272729L578.56640625,46.00455752286044L586.831640625,39.479555511474594L595.096875,70.08180736194957L603.3621093749999,71.85453824129971L611.62734375,71.08636183305221L619.892578125,68.72906591242008L628.1578125,54.51903131658379L636.4230468750001,52.995778656005875L644.68828125,54.83636363636366L652.953515625,60.772878404097135L661.21875,61.93570681485263L669.4839843750001,62.18053068681196L677.7492187500001,60.89530341408469L686.0144531249999,65.36297954212534L694.2796874999999,66.83181818181818L702.544921875,59.53299179077147L710.81015625,67.07661590576174L719.075390625,56.10571906349876L727.3406249999999,51.28214229236948L735.605859375,52.995778656005875L743.87109375,57.6924329584295L752.136328125,52.17070416537198L760.4015625000001,50.457067801735626L768.666796875,47.66448586203833L776.93203125,41.91817176125265L785.197265625,36.31590707952325L793.4625000000001,41.91817176125265L801.7277343750001,46.00455752286044L809.9929687499999,92.64691744717683L818.2582031249999,112.94421012184839L826.5234375,143.38967846957118L834.788671875,156.8196916060014L843.05390625,162.75261102156205L851.3191406249999,149.31183797662908L859.584375,148.4550197948109L867.849609375,146.65119892467152L876.11484375,139.63819649436257L884.3800781250001,134.09204545454546L892.6453125,130.08949023160065L900.910546875,127.44558590975677" style="fill: none;" fill="none"></path></g></g></g></g></g></g><g transform="translate(41, 377)" clip-path="url(#clip_1)"><clipPath id="clip_1"><rect width="991" height="23"></rect></clipPath><g><g><line x1="0" y1="0" x2="0" y2="5" style="visibility: inherit;" fill="rgb(0, 0, 0)" stroke="rgb(204, 204, 204)" stroke-width="1px"></line><line x1="82.65234375" y1="0" x2="82.65234375" y2="5" style="visibility: inherit;" fill="rgb(0, 0, 0)" stroke="rgb(204, 204, 204)" stroke-width="1px"></line><line x1="165.3046875" y1="0" x2="165.3046875" y2="5" style="visibility: inherit;" fill="rgb(0, 0, 0)" stroke="rgb(204, 204, 204)" stroke-width="1px"></line><line x1="247.95703125" y1="0" x2="247.95703125" y2="5" style="visibility: inherit;" fill="rgb(0, 0, 0)" stroke="rgb(204, 204, 204)" stroke-width="1px"></line><line x1="330.609375" y1="0" x2="330.609375" y2="5" style="visibility: inherit;" fill="rgb(0, 0, 0)" stroke="rgb(204, 204, 204)" stroke-width="1px"></line><line x1="413.26171875" y1="0" x2="413.26171875" y2="5" style="visibility: inherit;" fill="rgb(0, 0, 0)" stroke="rgb(204, 204, 204)" stroke-width="1px"></line><line x1="495.9140625" y1="0" x2="495.9140625" y2="5" style="visibility: inherit;" fill="rgb(0, 0, 0)" stroke="rgb(204, 204, 204)" stroke-width="1px"></line><line x1="578.56640625" y1="0" x2="578.56640625" y2="5" style="visibility: inherit;" fill="rgb(0, 0, 0)" stroke="rgb(204, 204, 204)" stroke-width="1px"></line><line x1="661.21875" y1="0" x2="661.21875" y2="5" style="visibility: inherit;" fill="rgb(0, 0, 0)" stroke="rgb(204, 204, 204)" stroke-width="1px"></line><line x1="743.87109375" y1="0" x2="743.87109375" y2="5" style="visibility: inherit;" fill="rgb(0, 0, 0)" stroke="rgb(204, 204, 204)" stroke-width="1px"></line><line x1="826.5234375" y1="0" x2="826.5234375" y2="5" style="visibility: inherit;" fill="rgb(0, 0, 0)" stroke="rgb(204, 204, 204)" stroke-width="1px"></line><line x1="909.17578125" y1="0" x2="909.17578125" y2="5" style="visibility: inherit;" fill="rgb(0, 0, 0)" stroke="rgb(204, 204, 204)" stroke-width="1px"></line><line x1="991.828125" y1="0" x2="991.828125" y2="5" style="visibility: inherit;" fill="rgb(0, 0, 0)" stroke="rgb(204, 204, 204)" stroke-width="1px"></line></g><g transform="translate(0, 8)"><text x="0" y="0" dx="0em" dy="0.95em" style="text-anchor: middle; visibility: hidden; font-family: Roboto, sans-serif; font-size: 12px; font-weight: 200;" fill="rgb(255, 255, 255)" stroke="none" stroke-width="1px">-10</text><text x="82.65234375" y="0" dx="0em" dy="0.95em" style="text-anchor: middle; visibility: inherit; font-family: Roboto, sans-serif; font-size: 12px; font-weight: 200;" fill="rgb(255, 255, 255)" stroke="none" stroke-width="1px">0</text><text x="165.3046875" y="0" dx="0em" dy="0.95em" style="text-anchor: middle; visibility: inherit; font-family: Roboto, sans-serif; font-size: 12px; font-weight: 200;" fill="rgb(255, 255, 255)" stroke="none" stroke-width="1px">10</text><text x="247.95703125" y="0" dx="0em" dy="0.95em" style="text-anchor: middle; visibility: inherit; font-family: Roboto, sans-serif; font-size: 12px; font-weight: 200;" fill="rgb(255, 255, 255)" stroke="none" stroke-width="1px">20</text><text x="330.609375" y="0" dx="0em" dy="0.95em" style="text-anchor: middle; visibility: inherit; font-family: Roboto, sans-serif; font-size: 12px; font-weight: 200;" fill="rgb(255, 255, 255)" stroke="none" stroke-width="1px">30</text><text x="413.26171875" y="0" dx="0em" dy="0.95em" style="text-anchor: middle; visibility: inherit; font-family: Roboto, sans-serif; font-size: 12px; font-weight: 200;" fill="rgb(255, 255, 255)" stroke="none" stroke-width="1px">40</text><text x="495.9140625" y="0" dx="0em" dy="0.95em" style="text-anchor: middle; visibility: inherit; font-family: Roboto, sans-serif; font-size: 12px; font-weight: 200;" fill="rgb(255, 255, 255)" stroke="none" stroke-width="1px">50</text><text x="578.56640625" y="0" dx="0em" dy="0.95em" style="text-anchor: middle; visibility: inherit; font-family: Roboto, sans-serif; font-size: 12px; font-weight: 200;" fill="rgb(255, 255, 255)" stroke="none" stroke-width="1px">60</text><text x="661.21875" y="0" dx="0em" dy="0.95em" style="text-anchor: middle; visibility: inherit; font-family: Roboto, sans-serif; font-size: 12px; font-weight: 200;" fill="rgb(255, 255, 255)" stroke="none" stroke-width="1px">70</text><text x="743.87109375" y="0" dx="0em" dy="0.95em" style="text-anchor: middle; visibility: inherit; font-family: Roboto, sans-serif; font-size: 12px; font-weight: 200;" fill="rgb(255, 255, 255)" stroke="none" stroke-width="1px">80</text><text x="826.5234375" y="0" dx="0em" dy="0.95em" style="text-anchor: middle; visibility: inherit; font-family: Roboto, sans-serif; font-size: 12px; font-weight: 200;" fill="rgb(255, 255, 255)" stroke="none" stroke-width="1px">90</text><text x="909.17578125" y="0" dx="0em" dy="0.95em" style="text-anchor: middle; visibility: inherit; font-family: Roboto, sans-serif; font-size: 12px; font-weight: 200;" fill="rgb(255, 255, 255)" stroke="none" stroke-width="1px">100</text><text x="991.828125" y="0" dx="0em" dy="0.95em" style="text-anchor: middle; visibility: hidden; font-family: Roboto, sans-serif; font-size: 12px; font-weight: 200;" fill="rgb(255, 255, 255)" stroke="none" stroke-width="1px">110</text></g><line x1="0" y1="0" x2="991.828125" y2="0" fill="rgb(0, 0, 0)" stroke="rgb(204, 204, 204)" stroke-width="1px"></line></g></g></g></g></svg>