<svg viewBox="0 0 1033 400" xmlns="http://www.w3.org/2000/svg"><g><g><g><g><g><line x1="51.5625" y1="377" x2="46.5625" y2="377" style="visibility: inherit;" fill="rgb(0, 0, 0)" stroke="rgb(204, 204, 204)" stroke-width="1px"></line><line x1="51.5625" y1="329.875" x2="46.5625" y2="329.875" style="visibility: inherit;" fill="rgb(0, 0, 0)" stroke="rgb(204, 204, 204)" stroke-width="1px"></line><line x1="51.5625" y1="282.75" x2="46.5625" y2="282.75" style="visibility: inherit;" fill="rgb(0, 0, 0)" stroke="rgb(204, 204, 204)" stroke-width="1px"></line><line x1="51.5625" y1="235.625" x2="46.5625" y2="235.625" style="visibility: inherit;" fill="rgb(0, 0, 0)" stroke="rgb(204, 204, 204)" stroke-width="1px"></line><line x1="51.5625" y1="188.5" x2="46.5625" y2="188.5" style="visibility: inherit;" fill="rgb(0, 0, 0)" stroke="rgb(204, 204, 204)" stroke-width="1px"></line><line x1="51.5625" y1="141.375" x2="46.5625" y2="141.375" style="visibility: inherit;" fill="rgb(0, 0, 0)" stroke="rgb(204, 204, 204)" stroke-width="1px"></line><line x1="51.5625" y1="94.25" x2="46.5625" y2="94.25" style="visibility: inherit;" fill="rgb(0, 0, 0)" stroke="rgb(204, 204, 204)" stroke-width="1px"></line><line x1="51.5625" y1="47.125" x2="46.5625" y2="47.125" style="visibility: inherit;" fill="rgb(0, 0, 0)" stroke="rgb(204, 204, 204)" stroke-width="1px"></line><line x1="51.5625" y1="0" x2="46.5625" y2="0" style="visibility: inherit;" fill="rgb(0, 0, 0)" stroke="rgb(204, 204, 204)" stroke-width="1px"></line></g><g transform="translate(41.5625, 0)"><text x="0" y="377" dx="0em" dy="0.3em" style="text-anchor: end; visibility: hidden; font-family: Roboto, sans-serif; font-size: 12px; font-weight: 200;" fill="rgb(255, 255, 255)" stroke="none" stroke-width="1px">-150</text><text x="0" y="329.875" dx="0em" dy="0.3em" style="text-anchor: end; visibility: inherit; font-family: Roboto, sans-serif; font-size: 12px; font-weight: 200;" fill="rgb(255, 255, 255)" stroke="none" stroke-width="1px">-100</text><text x="0" y="282.75" dx="0em" dy="0.3em" style="text-anchor: end; visibility: inherit; font-family: Roboto, sans-serif; font-size: 12px; font-weight: 200;" fill="rgb(255, 255, 255)" stroke="none" stroke-width="1px">-50</text><text x="0" y="235.625" dx="0em" dy="0.3em" style="text-anchor: end; visibility: inherit; font-family: Roboto, sans-serif; font-size: 12px; font-weight: 200;" fill="rgb(255, 255, 255)" stroke="none" stroke-width="1px">0</text><text x="0" y="188.5" dx="0em" dy="0.3em" style="text-anchor: end; visibility: inherit; font-family: Roboto, sans-serif; font-size: 12px; font-weight: 200;" fill="rgb(255, 255, 255)" stroke="none" stroke-width="1px">50</text><text x="0" y="141.375" dx="0em" dy="0.3em" style="text-anchor: end; visibility: inherit; font-family: Roboto, sans-serif; font-size: 12px; font-weight: 200;" fill="rgb(255, 255, 255)" stroke="none" stroke-width="1px">100</text><text x="0" y="94.25" dx="0em" dy="0.3em" style="text-anchor: end; visibility: inherit; font-family: Roboto, sans-serif; font-size: 12px; font-weight: 200;" fill="rgb(255, 255, 255)" stroke="none" stroke-width="1px">150</text><text x="0" y="47.125" dx="0em" dy="0.3em" style="text-anchor: end; visibility: inherit; font-family: Roboto, sans-serif; font-size: 12px; font-weight: 200;" fill="rgb(255, 255, 255)" stroke="none" stroke-width="1px">200</text><text x="0" y="0" dx="0em" dy="0.3em" style="text-anchor: end; visibility: hidden; font-family: Roboto, sans-serif; font-size: 12px; font-weight: 200;" fill="rgb(255, 255, 255)" stroke="none" stroke-width="1px">250</text></g><line x1="51.5625" y1="0" x2="51.5625" y2="377" fill="rgb(0, 0, 0)" stroke="rgb(204, 204, 204)" stroke-width="1px"></line></g></g><g transform="translate(51, 0)" clip-path="url(#clip_0)"><clipPath id="clip_0"><rect width="981" height="377"></rect></clipPath><g><g><g><line x1="0" y1="0" x2="0" y2="377" fill="rgb(0, 0, 0)" stroke="rgb(189, 189, 189)" stroke-width="1px" opacity="0.25"></line><line x1="81.78645833333333" y1="0" x2="81.78645833333333" y2="377" fill="rgb(0, 0, 0)" stroke="rgb(189, 189, 189)" stroke-width="1px" opacity="0.25"></line><line x1="163.57291666666666" y1="0" x2="163.57291666666666" y2="377" fill="rgb(0, 0, 0)" stroke="rgb(189, 189, 189)" stroke-width="1px" opacity="0.25"></line><line x1="245.359375" y1="0" x2="245.359375" y2="377" fill="rgb(0, 0, 0)" stroke="rgb(189, 189, 189)" stroke-width="1px" opacity="0.25"></line><line x1="327.1458333333333" y1="0" x2="327.1458333333333" y2="377" fill="rgb(0, 0, 0)" stroke="rgb(189, 189, 189)" stroke-width="1px" opacity="0.25"></line><line x1="408.9322916666667" y1="0" x2="408.9322916666667" y2="377" fill="rgb(0, 0, 0)" stroke="rgb(189, 189, 189)" stroke-width="1px" opacity="0.25"></line><line x1="490.71875" y1="0" x2="490.71875" y2="377" fill="rgb(0, 0, 0)" stroke="rgb(189, 189, 189)" stroke-width="1px" opacity="0.25"></line><line x1="572.5052083333334" y1="0" x2="572.5052083333334" y2="377" fill="rgb(0, 0, 0)" stroke="rgb(189, 189, 189)" stroke-width="1px" opacity="0.25"></line><line x1="654.2916666666666" y1="0" x2="654.2916666666666" y2="377" fill="rgb(0, 0, 0)" stroke="rgb(189, 189, 189)" stroke-width="1px" opacity="0.25"></line><line x1="736.078125" y1="0" x2="736.078125" y2="377" fill="rgb(0, 0, 0)" stroke="rgb(189, 189, 189)" stroke-width="1px" opacity="0.25"></line><line x1="817.8645833333334" y1="0" x2="817.8645833333334" y2="377" fill="rgb(0, 0, 0)" stroke="rgb(189, 189, 189)" stroke-width="1px" opacity="0.25"></line><line x1="899.6510416666666" y1="0" x2="899.6510416666666" y2="377" fill="rgb(0, 0, 0)" stroke="rgb(189, 189, 189)" stroke-width="1px" opacity="0.25"></line><line x1="981.4375" y1="0" x2="981.4375" y2="377" fill="rgb(0, 0, 0)" stroke="rgb(189, 189, 189)" stroke-width="1px" opacity="0.25"></line></g><g><line x1="0" y1="377" x2="981.4375" y2="377" fill="rgb(0, 0, 0)" stroke="rgb(189, 189, 189)" stroke-width="1px" opacity="0.25"></line><line x1="0" y1="329.875" x2="981.4375" y2="329.875" fill="rgb(0, 0, 0)" stroke="rgb(189, 189, 189)" stroke-width="1px" opacity="0.25"></line><line x1="0" y1="282.75" x2="981.4375" y2="282.75" fill="rgb(0, 0, 0)" stroke="rgb(189, 189, 189)" stroke-width="1px" opacity="0.25"></line><line x1="0" y1="235.625" x2="981.4375" y2="235.625" fill="rgb(0, 0, 0)" stroke="rgb(189, 189, 189)" stroke-width="1px" opacity="0.25"></line><line x1="0" y1="188.5" x2="981.4375" y2="188.5" fill="rgb(0, 0, 0)" stroke="rgb(189, 189, 189)" stroke-width="1px" opacity="0.25"></line><line x1="0" y1="141.375" x2="981.4375" y2="141.375" fill="rgb(0, 0, 0)" stroke="rgb(189, 189, 189)" stroke-width="1px" opacity="0.25"></line><line x1="0" y1="94.25" x2="981.4375" y2="94.25" fill="rgb(0, 0, 0)" stroke="rgb(189, 189, 189)" stroke-width="1px" opacity="0.25"></line><line x1="0" y1="47.125" x2="981.4375" y2="47.125" fill="rgb(0, 0, 0)" stroke="rgb(189, 189, 189)" stroke-width="1px" opacity="0.25"></line><line x1="0" y1="0" x2="981.4375" y2="0" fill="rgb(0, 0, 0)" stroke="rgb(189, 189, 189)" stroke-width="1px" opacity="0.25"></line></g></g></g><g><g><line x1="0" y1="235.625" x2="981.4375" y2="235.625" fill="rgb(0, 0, 0)" stroke="rgb(153, 153, 153)" stroke-width="1.5px"></line></g></g><g><g><line x1="81.78645833333333" y1="0" x2="81.78645833333333" y2="377" fill="rgb(0, 0, 0)" stroke="rgb(153, 153, 153)" stroke-width="1.5px"></line></g></g><g><g><g><g><g><path stroke="rgb(187, 187, 187)" stroke-width="2px" d="M81.78645833333333,323.20310497283936L89.96510416666666,315.68328658342364L98.14375000000001,313.4743145903762L106.32239583333333,311.169124318221L114.50104166666667,307.46809741151907L122.6796875,302.6978079846671L130.85833333333332,299.03151705580075L139.03697916666667,295.0636413484248L147.215625,289.7800743347507L155.39427083333334,285.88881381613885L163.57291666666666,283.00569798676025L171.75156249999998,278.5793912793381L179.93020833333333,275.6089204860885L188.10885416666667,273.5841133315134L196.28750000000002,271.04102955372895L204.46614583333334,269.10054714179444L212.64479166666666,265.63327076608886L220.8234375,263.8817925198909L229.00208333333333,262.37948830105984L237.18072916666668,261.6821375847917L245.359375,260.4667536212194L253.53802083333335,260.3078706190537L261.71666666666664,258.7805135816794L269.89531250000005,259.2980618430326L278.07395833333334,260.1124562596216L286.2526041666667,259.3534618275985L294.43125,255.6911387283031L302.6098958333333,252.56873017817136L310.7885416666667,250.1209921917808L318.9671875,246.2804251554495L327.1458333333333,243.96221892094275L335.32447916666666,239.3622988641L343.50312499999995,233.53983519524922L351.68177083333336,227.81260111594506L359.86041666666665,223.94123825346722L368.0390625,220.42600835580998L376.21770833333335,218.21481133486935L384.39635416666664,215.97720130677314L392.57500000000005,212.8147873869731L400.75364583333334,209.13376248387337L408.9322916666667,205.7722532876462L417.1109375,201.1902178761444L425.2895833333333,198.18412166109798L433.4682291666667,195.1530840457858L441.646875,190.1939386113127L449.8255208333333,185.7174133908126L458.00416666666666,183.4338900738919L466.18281249999995,180.02579241065263L474.36145833333336,175.425420766459L482.54010416666665,170.73264996655135L490.71875,167.2295216357976L498.8973958333333,164.05333327413288L507.0760416666667,160.66486538195431L515.2546875,158.0395150925121L523.4333333333333,159.05412337740728L531.6119791666666,155.34915029597423L539.7906250000001,152.23345488400474L547.9692708333333,151.08764684397693L556.1479166666667,149.26728380798508L564.3265624999999,146.0460019757699L572.5052083333334,144.989308025977L580.6838541666667,146.8099133678324L588.8625,153.18784407019902L597.0411458333333,151.37492444443873L605.2197916666667,148.5170830007086L613.3984375,146.02183005402625L621.5770833333333,145.8022651085266L629.7557291666667,142.3888324919348L637.934375,139.3294463762644L646.1130208333333,137.38330796247737L654.2916666666666,136.59657404903183L662.4703125000001,134.9239478168703L670.6489583333333,132.99873374902108L678.8276041666667,130.3354241025621L687.0062499999999,127.47727600694738L695.1848958333334,126.10654001212743L703.3635416666667,127.61747334657088L711.5421875,127.02817125617253L719.7208333333333,126.73766398417224L727.8994791666667,127.66427946655311L736.078125,127.33506729846218L744.2567708333333,127.21368668034685L752.4354166666667,126.92265782424809L760.6140625,122.17404210513239L768.7927083333333,120.14791494050868L776.9713541666666,121.83756507300882L785.1500000000001,123.09096092643466L793.3286458333333,122.67371225227195L801.5072916666667,120.60348781889246L809.6859374999999,117.66298932829837L817.8645833333334,116.14797757219876L826.0432291666667,117.51435098118544L834.221875,117.87109654299594L842.4005208333333,116.03889089698899L850.5791666666667,115.26595645591799L858.7578125,115.44495271876563L866.9364583333333,115.28085824319788L875.1151041666667,116.8362865676228L883.29375,121.55833143459225L891.4723958333333,123.67243902341401" style="fill: none;" fill="none"></path></g><g><path stroke="rgb(0, 153, 136)" stroke-width="2px" d="M81.78645833333333,323.20310497283936L89.96510416666666,315.194988322258L98.14375000000001,311.7658560675018L106.32239583333333,309.81532895705277L114.50104166666667,307.55661026638967L122.6796875,306.5282249342614L130.85833333333332,303.96470976167967L139.03697916666667,301.93886548480805L147.215625,298.2359170767372L155.39427083333334,296.20311884951735L163.57291666666666,292.55422849592156L171.75156249999998,291.8548000631504L179.93020833333333,290.3169813841762L188.10885416666667,288.36523003940476L196.28750000000002,287.00542746356524L204.46614583333334,286.82437157994144L212.64479166666666,284.2739105165346L220.8234375,282.4063730201518L229.00208333333333,281.12262511370767L237.18072916666668,280.8080144818518L245.359375,280.3929331474876L253.53802083333335,279.5335409087211L261.71666666666664,277.35328036553886L269.89531250000005,276.9247780900087L278.07395833333334,276.0115704077844L286.2526041666667,274.56976228734567L294.43125,272.4063873618883L302.6098958333333,270.72447633133316L310.7885416666667,268.7395370533674L318.9671875,266.369854741898L327.1458333333333,265.3563878674922L335.32447916666666,264.63559137208335L343.50312499999995,263.13786382308075L351.68177083333336,262.2568229934896L359.86041666666665,259.84853613941345L368.0390625,259.05336787791526L376.21770833333335,257.4537648937144L384.39635416666664,256.8879976216431L392.57500000000005,255.70031026810898L400.75364583333334,253.14159453223138L408.9322916666667,252.1964644929338L417.1109375,250.49740026419462L425.2895833333333,248.3468898201044L433.4682291666667,246.3031818205187L441.646875,243.88042831193474L449.8255208333333,240.21651343692974L458.00416666666666,236.70625886206386L466.18281249999995,234.19291846177038L474.36145833333336,231.73269616446194L482.54010416666665,229.02511439894215L490.71875,225.56600669247965L498.8973958333333,224.03305985845512L507.0760416666667,221.8787959503934L515.2546875,220.283364419447L523.4333333333333,216.8746829335112L531.6119791666666,214.31686814404742L539.7906250000001,212.81537084255908L547.9692708333333,210.51089083668137L556.1479166666667,208.67340444562745L564.3265624999999,205.39440217589075L572.5052083333334,202.22204298171232L580.6838541666667,199.85064492126003L588.8625,197.5732915433627L597.0411458333333,195.8691465149153L605.2197916666667,193.624166413893L613.3984375,190.3243958978353L621.5770833333333,187.97502054956544L629.7557291666667,185.33330985705248L637.934375,183.0546364612591L646.1130208333333,180.8078295146949L654.2916666666666,178.0934137274937L662.4703125000001,176.53034635508752L670.6489583333333,174.46615975549634L678.8276041666667,172.4149860296894L687.0062499999999,169.73600203193718L695.1848958333334,166.9469142913669L703.3635416666667,164.99804041289389L711.5421875,164.3656776184028L719.7208333333333,162.5952843405119L727.8994791666667,160.92546549566458L736.078125,158.0409356160633L744.2567708333333,156.45968079255056L752.4354166666667,154.4812449226739L760.6140625,153.0690539528109L768.7927083333333,151.6093617311226L776.9713541666666,150.192241680092L785.1500000000001,149.47286347881933L793.3286458333333,149.21780861768713L801.5072916666667,148.60571825929634L809.6859374999999,148.04813760535808L817.8645833333334,146.8610794397407L826.0432291666667,145.12808666683515L834.221875,143.92061240659524L842.4005208333333,141.6078220643185L850.5791666666667,139.85707193884744L858.7578125,138.66185285111362L866.9364583333333,137.45752241623455L875.1151041666667,134.46542856509714L883.29375,132.8752914102986L891.4723958333333,131.67973376036372" style="fill: none;" fill="none"></path></g><g><path stroke="rgb(238, 51, 119)" stroke-width="2px" d="M81.78645833333333,323.20310497283936L89.96510416666666,320.01635109186174L98.14375000000001,316.1101472465359L106.32239583333333,313.17282227943923L114.50104166666667,310.98893499989873L122.6796875,309.24928122360643L130.85833333333332,306.74416708838095L139.03697916666667,306.4621355822143L147.215625,304.1354170435292L155.39427083333334,303.22935309345326L163.57291666666666,302.5220964793777L171.75156249999998,301.4503230406081L179.93020833333333,301.04136363634564L188.10885416666667,299.8422129500521L196.28750000000002,298.5583812208629L204.46614583333334,297.11561285779305L212.64479166666666,296.4027789274997L220.8234375,295.7153522755181L229.00208333333333,294.4748708370117L237.18072916666668,293.92070775260123L245.359375,292.4596846582066L253.53802083333335,291.5757451938399L261.71666666666664,290.14090194854845L269.89531250000005,288.6628955205989L278.07395833333334,287.0112604563739L286.2526041666667,286.9838628974687L294.43125,286.2768226872873L302.6098958333333,284.9614070288264L310.7885416666667,284.13067496208L318.9671875,283.2496846096019L327.1458333333333,283.168363897522L335.32447916666666,282.71579326205887L343.50312499999995,282.22209552060485L351.68177083333336,282.16488584313345L359.86041666666665,280.1221761454471L368.0390625,280.2822796269079L376.21770833333335,279.2246478446727L384.39635416666664,278.4356110114604L392.57500000000005,277.4381447609345L400.75364583333334,276.9965503615246L408.9322916666667,276.8086449956642L417.1109375,276.358134258992L425.2895833333333,275.3866909989929L433.4682291666667,273.62873883462584L441.646875,272.29928982087046L449.8255208333333,272.05258368483476L458.00416666666666,270.3943840960317L466.18281249999995,270.1968444239842L474.36145833333336,269.0390136062792L482.54010416666665,268.379818499303L490.71875,267.1774130855837L498.8973958333333,266.65084727304054L507.0760416666667,266.3486103917169L515.2546875,265.5948026276227L523.4333333333333,264.5787545242659L531.6119791666666,263.1177189430441L539.7906250000001,263.23082398324283L547.9692708333333,262.7721376146618L556.1479166666667,261.6069697083081L564.3265624999999,260.8224297345308L572.5052083333334,259.18493343428526L580.6838541666667,259.72718999526353L588.8625,259.4738360461083L597.0411458333333,259.1320099349312L605.2197916666667,258.77825005122975L613.3984375,257.8043870748815L621.5770833333333,256.7420729702555L629.7557291666667,255.6873511277343L637.934375,255.11337034193906L646.1130208333333,253.52341453533313L654.2916666666666,252.00074478328787L662.4703125000001,250.17148619091847L670.6489583333333,248.4511531204959L678.8276041666667,247.04435101860645L687.0062499999999,245.22923003169225L695.1848958333334,243.86590379603106L703.3635416666667,242.30729768542884L711.5421875,240.52401183383728L719.7208333333333,239.29398149107138L727.8994791666667,238.26386348220257L736.078125,237.13900341275357L744.2567708333333,236.05784328772444L752.4354166666667,234.59669334789402L760.6140625,232.93686682975465L768.7927083333333,232.26912464401823L776.9713541666666,229.216587118755L785.1500000000001,227.27922534540303L793.3286458333333,225.5956860727967L801.5072916666667,225.28677698677183L809.6859374999999,223.415481736573L817.8645833333334,222.05426226849102L826.0432291666667,220.2005986628219L834.221875,218.51286587150597L842.4005208333333,216.62123090214553L850.5791666666667,215.46001247851265L858.7578125,214.44593550758486L866.9364583333333,214.04864579628065L875.1151041666667,211.81640542477462L883.29375,210.41880283433255L891.4723958333333,208.1157177166823" style="fill: none;" fill="none"></path></g><g><path stroke="rgb(51, 187, 238)" stroke-width="2px" d="M81.78645833333333,326.51543102264407L89.96510416666666,319.6354864478111L98.14375000000001,318.2823467663356L106.32239583333333,313.6483810975271L114.50104166666667,310.5525405345072L122.6796875,304.0281285456569L130.85833333333332,299.31746985365714L139.03697916666667,293.70162744790343L147.215625,290.7339689862099L155.39427083333334,286.9581771021685L163.57291666666666,284.3867638800828L171.75156249999998,283.8341714947453L179.93020833333333,282.8370586572096L188.10885416666667,281.2751869286693L196.28750000000002,279.2672394234206L204.46614583333334,277.1213508622795L212.64479166666666,273.155648793227L220.8234375,270.406206264596L229.00208333333333,266.0098914233498L237.18072916666668,262.92024905586743L245.359375,262.0712525323007L253.53802083333335,258.5333637474885L261.71666666666664,256.5586137849639L269.89531250000005,253.6978118466029L278.07395833333334,252.8229259689026L286.2526041666667,253.2637035225586L294.43125,255.54972096089665L302.6098958333333,254.14730692932815L310.7885416666667,251.14604141033493L318.9671875,249.95811323676404L327.1458333333333,247.20680970481814L335.32447916666666,244.19308920509414L343.50312499999995,240.20886510436165L351.68177083333336,236.4388063665762L359.86041666666665,232.77283701963566L368.0390625,229.72355687564996L376.21770833333335,226.1037745057823L384.39635416666664,223.391933894297L392.57500000000005,220.62893050444896L400.75364583333334,219.4644791049458L408.9322916666667,217.79397810150496L417.1109375,213.32750246887625L425.2895833333333,208.53287768157102L433.4682291666667,209.11247880249394L441.646875,207.492979255205L449.8255208333333,204.78599718201298L458.00416666666666,199.83718722198645L466.18281249999995,196.19962450886095L474.36145833333336,193.60652498756923L482.54010416666665,188.9548498946951L490.71875,188.04451747312856L498.8973958333333,187.01960406907924L507.0760416666667,184.904403291511L515.2546875,181.81302891109112L523.4333333333333,178.6531561604344L531.6119791666666,176.33767504544187L539.7906250000001,175.12155579478193L547.9692708333333,175.03281185669096L556.1479166666667,176.33105549932958L564.3265624999999,173.62474494815717L572.5052083333334,168.60865467763438L580.6838541666667,164.28263566241552L588.8625,163.29582642308404L597.0411458333333,160.98631305355744L605.2197916666667,160.8192424601252L613.3984375,160.34304131805507L621.5770833333333,158.93629845416314L629.7557291666667,155.5886565749393L637.934375,154.33993043330588L646.1130208333333,151.63613762704898L654.2916666666666,149.53411253075816L662.4703125000001,148.51044382918488L670.6489583333333,145.71293480031855L678.8276041666667,142.29882633276682L687.0062499999999,137.66836340372504L695.1848958333334,137.0987219912096L703.3635416666667,138.45350617446212L711.5421875,142.47209910415236L719.7208333333333,143.91146280874386L727.8994791666667,142.90359380310522L736.078125,141.21542308941926L744.2567708333333,137.66021550068524L752.4354166666667,136.27879279833596L760.6140625,132.39937777555915L768.7927083333333,134.2475548574742L776.9713541666666,136.87932860692837L785.1500000000001,139.20665755081475L793.3286458333333,139.0221267936724L801.5072916666667,139.9523864735423L809.6859374999999,139.55776245053167L817.8645833333334,139.09404365501138L826.0432291666667,140.6850848691543L834.221875,142.01602504258634L842.4005208333333,145.99806065085698L850.5791666666667,150.01516256238918L858.7578125,143.2910087007636L866.9364583333333,135.547622989318L875.1151041666667,133.46482454890094L883.29375,136.07955655642795L891.4723958333333,137.56918871443534" style="fill: none;" fill="none"></path></g><g><path stroke="rgb(204, 51, 17)" stroke-width="2px" d="M81.78645833333333,326.51543102264407L89.96510416666666,316.166088449955L98.14375000000001,313.0389313834054L106.32239583333333,310.389354160954L114.50104166666667,308.7187668877125L122.6796875,305.1889757954985L130.85833333333332,304.3715157279078L139.03697916666667,301.9898533012038L147.215625,299.15654779211735L155.39427083333334,298.41367434480804L163.57291666666666,295.0626682385086L171.75156249999998,293.5483027939856L179.93020833333333,293.10430071990817L188.10885416666667,290.5766356667264L196.28750000000002,288.28896215152497L204.46614583333334,286.8343747994529L212.64479166666666,286.02460149389526L220.8234375,283.399127470167L229.00208333333333,280.69274775777524L237.18072916666668,280.9358955015326L245.359375,278.3748690287438L253.53802083333335,276.92536823909103L261.71666666666664,273.6868519841239L269.89531250000005,272.12081791185346L278.07395833333334,271.826253375538L286.2526041666667,269.585903202474L294.43125,268.88625368403757L302.6098958333333,266.78821916086224L310.7885416666667,265.55550441420274L318.9671875,264.9777595005489L327.1458333333333,262.5788076820029L335.32447916666666,263.2252280314672L343.50312499999995,261.61663641972507L351.68177083333336,260.46226170691386L359.86041666666665,259.99542645887215L368.0390625,259.80408808961255L376.21770833333335,258.6432151909437L384.39635416666664,258.2181901622586L392.57500000000005,256.6833592023494L400.75364583333334,255.7185146389248L408.9322916666667,255.0045175771853L417.1109375,254.56503486975387L425.2895833333333,253.75910789290256L433.4682291666667,252.79795159585032L441.646875,250.57640541105275L449.8255208333333,249.6877097073764L458.00416666666666,247.51216309679774L466.18281249999995,245.05914658429617L474.36145833333336,243.19201799796923L482.54010416666665,242.91709443048555L490.71875,242.5495522620417L498.8973958333333,241.39567137969024L507.0760416666667,239.95849005539452L515.2546875,237.48843252920392L523.4333333333333,235.26338585914996L531.6119791666666,231.93502809847368L539.7906250000001,228.83678259852442L547.9692708333333,225.76568280698564L556.1479166666667,222.75858939267198L564.3265624999999,219.38904931698423L572.5052083333334,215.93749182316165L580.6838541666667,213.48037407834826L588.8625,212.20943857359583L597.0411458333333,209.79336186318216L605.2197916666667,208.86516054861914L613.3984375,206.03480725904208L621.5770833333333,202.36724400889813L629.7557291666667,199.57513831741772L637.934375,196.77664230136372L646.1130208333333,193.16722168224038L654.2916666666666,192.01127219544043L662.4703125000001,191.87199938598982L670.6489583333333,190.8134840516073L678.8276041666667,188.31897088216678L687.0062499999999,185.46372752289136L695.1848958333334,183.69954620230297L703.3635416666667,183.15968421857417L711.5421875,181.1997422900251L719.7208333333333,179.36353816500016L727.8994791666667,176.32053404707142L736.078125,174.08656131111636L744.2567708333333,171.69583436204823L752.4354166666667,168.6470160362353L760.6140625,166.41107345230756L768.7927083333333,165.56782658938988L776.9713541666666,164.10008149745718L785.1500000000001,163.58995417954122L793.3286458333333,164.812886150608L801.5072916666667,162.46789349456404L809.6859374999999,160.57354072320328L817.8645833333334,158.18766786043565L826.0432291666667,157.38206906953286L834.221875,155.40002319525976L842.4005208333333,157.12645082969246L850.5791666666667,157.36344892036183L858.7578125,155.71456124980014L866.9364583333333,153.50107163452364L875.1151041666667,151.02605189337285L883.29375,150.4571070195076L891.4723958333333,147.436840314915" style="fill: none;" fill="none"></path></g><g><path stroke="rgb(0, 119, 187)" stroke-width="2px" d="M81.78645833333333,326.51543102264407L89.96510416666666,319.8836466431618L98.14375000000001,316.48712065560477L106.32239583333333,315.88235607813385L114.50104166666667,312.0979893424956L122.6796875,308.897490070509L130.85833333333332,307.5704690468585L139.03697916666667,304.63958454668034L147.215625,304.3967862028022L155.39427083333334,304.58185589029677L163.57291666666666,302.53443938971657L171.75156249999998,301.7334950730436L179.93020833333333,301.8987146570205L188.10885416666667,300.4556526382239L196.28750000000002,299.74752599386915L204.46614583333334,299.0205353043677L212.64479166666666,297.6391185171675L220.8234375,295.21456683384355L229.00208333333333,293.63648699038424L237.18072916666668,292.2883569272866L245.359375,290.58957941036243L253.53802083333335,288.0548715486702L261.71666666666664,286.8550177397878L269.89531250000005,285.46771463777594L278.07395833333334,284.7859467143748L286.2526041666667,284.1086950433707L294.43125,283.7793371685116L302.6098958333333,283.2965190158721L310.7885416666667,282.71942294615604L318.9671875,281.48031705653426L327.1458333333333,279.0193810619713L335.32447916666666,280.12277700609576L343.50312499999995,279.45138318209507L351.68177083333336,278.9890208177933L359.86041666666665,280.0627569114475L368.0390625,279.53167791839877L376.21770833333335,277.97661047829297L384.39635416666664,277.28236468375087L392.57500000000005,277.36510664231355L400.75364583333334,277.4069484649668L408.9322916666667,275.2895716918754L417.1109375,274.0152899734353L425.2895833333333,274.401480998638L433.4682291666667,274.75526213440037L441.646875,274.79364807959445L449.8255208333333,275.2104440548444L458.00416666666666,274.40091526710484L466.18281249999995,273.7019504663996L474.36145833333336,274.05529042754955L482.54010416666665,272.72072921867715L490.71875,271.2258939368387L498.8973958333333,270.3220249752292L507.0760416666667,270.3054850237423L515.2546875,270.2362276750119L523.4333333333333,269.7085198119465L531.6119791666666,267.92328145809006L539.7906250000001,266.7528664578616L547.9692708333333,266.4785305207741L556.1479166666667,265.2643277317148L564.3265624999999,265.2532168782867L572.5052083333334,262.98326898271534L580.6838541666667,262.5483157826346L588.8625,262.4379905567694L597.0411458333333,262.3445627857524L605.2197916666667,261.82020143564205L613.3984375,260.6134483188132L621.5770833333333,259.30382719288707L629.7557291666667,258.6717507892277L637.934375,258.5831093533889L646.1130208333333,258.10634167099334L654.2916666666666,257.56786792412004L662.4703125000001,257.1752100160992L670.6489583333333,256.9182531268165L678.8276041666667,255.07752589456828L687.0062499999999,254.1403971113717L695.1848958333334,253.45140453040335L703.3635416666667,251.96886054432235L711.5421875,251.35924777934454L719.7208333333333,250.72104950016447L727.8994791666667,250.47143324795783L736.078125,250.3500020624603L744.2567708333333,250.4437099052313L752.4354166666667,249.45331249289768L760.6140625,248.5790629847828L768.7927083333333,248.39659917449853L776.9713541666666,247.66441128501833L785.1500000000001,245.69489113956416L793.3286458333333,243.680448749481L801.5072916666667,242.35075477291247L809.6859374999999,241.19015081411067L817.8645833333334,239.13693632510578L826.0432291666667,237.07896383003757L834.221875,236.06902655706622L842.4005208333333,234.70791471425187L850.5791666666667,232.91358713164024L858.7578125,230.2124628811723L866.9364583333333,229.7729134725121L875.1151041666667,228.10440836564226L883.29375,226.13937808117586L891.4723958333333,223.77496618700806" style="fill: none;" fill="none"></path></g><g><path stroke="rgb(255, 112, 67)" stroke-width="2px" d="M81.78645833333333,326.2176423835755L89.96510416666666,317.9768165636063L98.14375000000001,319.0547132340256L106.32239583333333,321.2174905491576L114.50104166666667,318.11115770219516L122.6796875,312.7574570410029L130.85833333333332,310.0011447880553L139.03697916666667,306.65679560900907L147.215625,306.32033531777375L155.39427083333334,307.58748179318803L163.57291666666666,303.9578791815146L171.75156249999998,301.4015256079094L179.93020833333333,297.89620052445537L188.10885416666667,295.34310069521973L196.28750000000002,292.9724496262027L204.46614583333334,289.4706973279395L212.64479166666666,284.85931521198125L220.8234375,282.0864399031612L229.00208333333333,278.7189896909141L237.18072916666668,275.5831348412851L245.359375,272.32964143078226L253.53802083333335,271.3642894901417L261.71666666666664,270.11355278072006L269.89531250000005,270.71981382808485L278.07395833333334,271.5714592949163L286.2526041666667,266.9232791527492L294.43125,264.12909384516087L302.6098958333333,259.46471556774407L310.7885416666667,256.3514373205834L318.9671875,254.9050816103335L327.1458333333333,253.55254941621945L335.32447916666666,250.4239262246182L343.50312499999995,244.59373292274833L351.68177083333336,239.48654428623897L359.86041666666665,234.0853557915991L368.0390625,232.18501486603355L376.21770833333335,230.16855899602342L384.39635416666664,228.1600531367L392.57500000000005,223.62894217504086L400.75364583333334,220.25537717185279L408.9322916666667,217.99375797091446L417.1109375,217.2096756195737L425.2895833333333,210.3555202287739L433.4682291666667,206.49126017660348L441.646875,203.49246495269628L449.8255208333333,201.24269882011026L458.00416666666666,197.19943858589068L466.18281249999995,197.67219199065636L474.36145833333336,200.8145178940974L482.54010416666665,198.34971779362846L490.71875,199.95566427909012L498.8973958333333,200.19984246851683L507.0760416666667,195.2849650361552L515.2546875,188.04381942619602L523.4333333333333,184.43202734297122L531.6119791666666,180.27676260939444L539.7906250000001,177.36141738314086L547.9692708333333,173.07421088062856L556.1479166666667,167.22405042364036L564.3265624999999,159.5425172597991L572.5052083333334,160.62950959294002L580.6838541666667,160.6929157395897L588.8625,159.91513375161514L597.0411458333333,160.60059660076158L605.2197916666667,160.00109425806437L613.3984375,156.22239414181368L621.5770833333333,154.41394676188264L629.7557291666667,146.21171188342356L637.934375,146.9670868834721L646.1130208333333,140.24352874141138L654.2916666666666,137.0922570306134L662.4703125000001,132.55415853965712L670.6489583333333,126.82790618794222L678.8276041666667,125.34472726379074L687.0062499999999,125.7621935054912L695.1848958333334,123.66695044167365L703.3635416666667,123.02464721660333L711.5421875,125.36475507343125L719.7208333333333,124.37080617668812L727.8994791666667,126.3967601571237L736.078125,131.61671499167414L744.2567708333333,129.0819382815035L752.4354166666667,122.87266399124094L760.6140625,108.27018115841642L768.7927083333333,90.92841513731058L776.9713541666666,73.53181067906603L785.1500000000001,58.44354472042792L793.3286458333333,49.956073640118106L801.5072916666667,59.4971287879527L809.6859374999999,68.30810422284489L817.8645833333334,69.53186674513267L826.0432291666667,76.13250220345168L834.221875,87.0619242957038L842.4005208333333,83.07613539712442L850.5791666666667,74.10905056200514L858.7578125,71.41980858732514L866.9364583333333,68.05234706645757L875.1151041666667,70.64190549329253L883.29375,74.48802558967664L891.4723958333333,89.641712631638" style="fill: none;" fill="none"></path></g><g><path stroke="rgb(187, 187, 187)" stroke-width="2px" d="M81.78645833333333,326.2176423835755L89.96510416666666,319.8721244382858L98.14375000000001,321.105639323799L106.32239583333333,318.83224086151404L114.50104166666667,314.7860045536155L122.6796875,310.78013206786164L130.85833333333332,308.6642809500726L139.03697916666667,306.31295176418604L147.215625,306.3716155887472L155.39427083333334,307.2152127032038L163.57291666666666,304.2955002774529L171.75156249999998,299.84688118140303L179.93020833333333,296.1867003972346L188.10885416666667,295.9393566065903L196.28750000000002,291.19106161231787L204.46614583333334,292.75339172087627L212.64479166666666,292.036473546272L220.8234375,289.28533599600394L229.00208333333333,287.65737221339594L237.18072916666668,285.4568741777487L245.359375,285.5570248931952L253.53802083333335,283.224575455913L261.71666666666664,281.14815842562587L269.89531250000005,277.423278555224L278.07395833333334,275.5037917006972L286.2526041666667,275.7757657378048L294.43125,273.8454187325553L302.6098958333333,272.06277639756945L310.7885416666667,271.760447324284L318.9671875,268.31954825254496L327.1458333333333,269.8583687964509L335.32447916666666,267.8426990883364L343.50312499999995,266.3076828429129L351.68177083333336,266.3503433228453L359.86041666666665,265.653912345413L368.0390625,264.9147335442617L376.21770833333335,262.4594778677099L384.39635416666664,259.94805003832687L392.57500000000005,261.2903575070658L400.75364583333334,259.0894098843692L408.9322916666667,254.77057862063907L417.1109375,256.2356920922932L425.2895833333333,252.7277560346212L433.4682291666667,247.6757646786095L441.646875,245.41661979192386L449.8255208333333,244.98189320367183L458.00416666666666,243.4531306001664L466.18281249999995,243.20512357646388L474.36145833333336,239.83838076720565L482.54010416666665,241.19360772592884L490.71875,239.12597387126908L498.8973958333333,235.08474494057808L507.0760416666667,234.91278505443253L515.2546875,232.87685898088435L523.4333333333333,230.36041855587212L531.6119791666666,228.42942386969048L539.7906250000001,228.27440058627192L547.9692708333333,226.29993738602647L556.1479166666667,225.01727964753533L564.3265624999999,223.91218148061404L572.5052083333334,221.50664377873397L580.6838541666667,221.1242585298136L588.8625,216.05733783845392L597.0411458333333,212.21310432508162L605.2197916666667,213.30396348997695L613.3984375,208.9406199763104L621.5770833333333,207.35530399643687L629.7557291666667,201.86959584619584L637.934375,198.9501964267849L646.1130208333333,196.046459248588L654.2916666666666,191.457824085072L662.4703125000001,189.82000608129223L670.6489583333333,188.31075294305631L678.8276041666667,188.18169070702646L687.0062499999999,189.1017392433992L695.1848958333334,185.9025303510017L703.3635416666667,186.0135491859428L711.5421875,186.97036393234205L719.7208333333333,184.51048608630344L727.8994791666667,183.6474000998106L736.078125,180.54293566535512L744.2567708333333,176.89634680265547L752.4354166666667,178.88322007271267L760.6140625,175.93081619890103L768.7927083333333,172.47654196543436L776.9713541666666,166.00457507397496L785.1500000000001,166.29536295667745L793.3286458333333,167.50741405543963L801.5072916666667,170.45274115024372L809.6859374999999,170.32006127797584L817.8645833333334,173.50904554058923L826.0432291666667,169.54454439741258L834.221875,164.29309117091827L842.4005208333333,164.75883575876435L850.5791666666667,166.23727781176498L858.7578125,160.44759860539392L866.9364583333333,160.6439495898721L875.1151041666667,157.15557305439935L883.29375,151.50305356469525L891.4723958333333,147.96965489272344" style="fill: none;" fill="none"></path></g><g><path stroke="rgb(0, 153, 136)" stroke-width="2px" d="M81.78645833333333,326.2176423835755L89.96510416666666,321.0072625088692L98.14375000000001,319.6633212424298L106.32239583333333,318.4121822524071L114.50104166666667,314.04078892263743L122.6796875,310.9215715665874L130.85833333333332,309.03323884406086L139.03697916666667,309.163019454115L147.215625,308.2121004719948L155.39427083333334,307.20796927972907L163.57291666666666,307.59615549505855L171.75156249999998,305.30137837221L179.93020833333333,302.94639032172506L188.10885416666667,304.60259602352914L196.28750000000002,302.3416230557284L204.46614583333334,301.015267584584L212.64479166666666,302.9350527593618L220.8234375,299.8608102178433L229.00208333333333,301.2257189914722L237.18072916666668,298.43720189406235L245.359375,299.0238191429705L253.53802083333335,296.712537976995L261.71666666666664,295.5851595013872L269.89531250000005,294.71012848087116L278.07395833333334,292.74937358084304L286.2526041666667,292.9581194081525L294.43125,291.92082849567936L302.6098958333333,290.02762916310684L310.7885416666667,289.83586451750864L318.9671875,289.74726613507124L327.1458333333333,289.191701167714L335.32447916666666,288.19604653844084L343.50312499999995,288.5381049978091L351.68177083333336,288.1579419291386L359.86041666666665,286.2901894608549L368.0390625,286.38769510223176L376.21770833333335,287.847596303162L384.39635416666664,285.7844487807061L392.57500000000005,285.4661521282797L400.75364583333334,284.4415485906616L408.9322916666667,282.17099448308124L417.1109375,280.87370625495936L425.2895833333333,281.7309050428959L433.4682291666667,278.96683982777944L441.646875,278.8558733516122L449.8255208333333,275.73554802047727L458.00416666666666,275.7208440634455L466.18281249999995,275.9342762935714L474.36145833333336,274.11216627813246L482.54010416666665,272.28466607698437L490.71875,270.3287559831562L498.8973958333333,270.26962816264745L507.0760416666667,268.7220901605252L515.2546875,269.86326491479775L523.4333333333333,269.89928338506644L531.6119791666666,267.31764017759957L539.7906250000001,269.0398602601246L547.9692708333333,271.36482545401816L556.1479166666667,271.96547047153814L564.3265624999999,271.7704949370367L572.5052083333334,270.220051333865L580.6838541666667,268.5230360531571L588.8625,267.694704623685L597.0411458333333,267.19083432892904L605.2197916666667,266.7618522094485L613.3984375,267.9718728498695L621.5770833333333,265.9536370518254L629.7557291666667,265.6853882838754L637.934375,264.9863046866338L646.1130208333333,262.39022185121064L654.2916666666666,261.81683504172616L662.4703125000001,261.8554807361868L670.6489583333333,263.09269993501346L678.8276041666667,262.2009949457493L687.0062499999999,261.4503637158779L695.1848958333334,259.82273652481484L703.3635416666667,260.6532841630426L711.5421875,260.71913070938865L719.7208333333333,259.2414913421981L727.8994791666667,258.6276187795468L736.078125,258.79736342394756L744.2567708333333,257.5970218313003L752.4354166666667,255.28742888857508L760.6140625,256.93977806716913L768.7927083333333,255.71080305665586L776.9713541666666,255.37257692485957L785.1500000000001,254.56557893651672L793.3286458333333,255.38614567123622L801.5072916666667,257.3189276065991L809.6859374999999,257.37529320374523L817.8645833333334,257.1502795637571L826.0432291666667,257.99143969565176L834.221875,256.39819025629487L842.4005208333333,254.181478580199L850.5791666666667,253.75637007734917L858.7578125,251.63005072606646L866.9364583333333,250.66056262691643L875.1151041666667,251.07219690155884L883.29375,249.61057407278955L891.4723958333333,249.9111235135742" style="fill: none;" fill="none"></path></g></g></g></g><g opacity="0.2"><g><g><g><path stroke="rgb(187, 187, 187)" stroke-width="2px" d="M81.78645833333333,323.20310497283936L89.96510416666666,311.17139554977416L98.14375000000001,311.3537014770508L106.32239583333333,308.45822055816654L114.50104166666667,302.6360366821289L122.6796875,296.0987804031372L130.85833333333332,293.7886623668671L139.03697916666667,289.27844047546387L147.215625,281.9878392696381L155.39427083333334,280.11074544906614L163.57291666666666,278.7071738910675L171.75156249999998,271.9640189838409L179.93020833333333,271.1629133987427L188.10885416666667,270.5508694076538L196.28750000000002,267.2293931865692L204.46614583333334,266.19119210243224L212.64479166666666,260.4338234376907L220.8234375,261.2550198507309L229.00208333333333,260.1262608337403L237.18072916666668,260.6361752510071L245.359375,258.6437443304062L253.53802083333335,260.06955134391785L261.71666666666664,256.4895081806183L269.89531250000005,260.07437810420987L278.07395833333334,261.334042096138L286.2526041666667,258.2149734163284L294.43125,250.19766345024107L302.6098958333333,247.88512214660642L310.7885416666667,246.44938746690752L318.9671875,240.51957672357563L327.1458333333333,240.48491033792496L335.32447916666666,232.46241969406606L343.50312499999995,224.80614038705824L351.68177083333336,219.22175040721893L359.86041666666665,218.13419412612916L368.0390625,215.15316359996797L376.21770833333335,214.89801583766936L384.39635416666664,212.6207862854004L392.57500000000005,208.07116652488708L400.75364583333334,203.61222514152524L408.9322916666667,200.72998950004578L417.1109375,194.31716476440428L425.2895833333333,193.67497734069826L433.4682291666667,190.60652762413025L441.646875,182.75522046089174L449.8255208333333,179.00262556076052L458.00416666666666,180.0086050987244L466.18281249999995,174.9136459159851L474.36145833333336,168.5248633003235L482.54010416666665,163.69349376678466L490.71875,161.97482913970947L498.8973958333333,159.28905073165893L507.0760416666667,155.58216354370117L515.2546875,154.10148965835575L523.4333333333333,160.57603580474856L531.6119791666666,149.79169067382813L539.7906250000001,147.55991176605227L547.9692708333333,149.36893478393554L556.1479166666667,146.53673925399778L564.3265624999999,141.2140792274475L572.5052083333334,143.40426710128784L580.6838541666667,149.54082138061526L588.8625,162.75474012374875L597.0411458333333,148.65554500579833L605.2197916666667,144.2303208351135L613.3984375,142.27895063400268L621.5770833333333,145.4729176902771L629.7557291666667,137.2686835670471L637.934375,134.7403672027588L646.1130208333333,134.46410034179686L654.2916666666666,135.41647317886353L662.4703125000001,132.41500846862792L670.6489583333333,130.11091264724732L678.8276041666667,126.34045963287355L687.0062499999999,123.19005386352538L695.1848958333334,124.05043601989746L703.3635416666667,129.88387334823605L711.5421875,126.14421812057493L719.7208333333333,126.30190307617188L727.8994791666667,129.0542026901245L736.078125,126.8412490463257L744.2567708333333,127.03161575317384L752.4354166666667,126.4861145401001L760.6140625,115.05111852645872L768.7927083333333,117.10872419357301L776.9713541666666,124.37204027175903L785.1500000000001,124.97105470657347L793.3286458333333,122.04783924102784L801.5072916666667,117.49815116882326L809.6859374999999,113.25224159240722L817.8645833333334,113.87545993804932L826.0432291666667,119.56391109466551L834.221875,118.40621488571166L842.4005208333333,113.29058242797852L850.5791666666667,114.10655479431153L858.7578125,115.71344711303712L866.9364583333333,115.03471652984618L875.1151041666667,119.16942905426025L883.29375,128.6413987350464L891.4723958333333,126.84360040664671" style="fill: none;" fill="none"></path></g><g><path stroke="rgb(0, 153, 136)" stroke-width="2px" d="M81.78645833333333,323.20310497283936L89.96510416666666,310.39011833190915L98.14375000000001,308.4738891029358L106.32239583333333,307.5215090751648L114.50104166666667,304.6076271438599L122.6796875,305.1055978012085L130.85833333333332,300.29884204864504L139.03697916666667,298.98516508102415L147.215625,292.7747874355316L155.39427083333334,293.1846503925323L163.57291666666666,287.1139881324768L171.75156249999998,290.80946367263795L179.93020833333333,288.01527461051944L188.10885416666667,285.4414267063141L196.28750000000002,284.96732199668884L204.46614583333334,286.55291544914246L212.64479166666666,280.44929819107057L220.8234375,279.60554094314574L229.00208333333333,279.1971988201141L237.18072916666668,280.3361272907257L245.359375,279.7703339099884L253.53802083333335,278.2444808292389L261.71666666666664,274.08293259620666L269.89531250000005,276.2820297527313L278.07395833333334,274.6417653751373L286.2526041666667,272.40705625534054L294.43125,269.1613305091858L302.6098958333333,268.20161236763005L310.7885416666667,265.7621299648285L318.9671875,262.8153325843811L327.1458333333333,263.83618789196015L335.32447916666666,263.5543967723846L343.50312499999995,260.8912726783753L351.68177083333336,260.93526181221006L359.86041666666665,256.2361059617996L368.0390625,257.8606155061722L376.21770833333335,255.0543604421616L384.39635416666664,256.0393467187881L392.57500000000005,253.91877924442292L400.75364583333334,249.30352093696595L408.9322916666667,250.77876943588257L417.1109375,247.94880392313001L425.2895833333333,245.12112415552136L433.4682291666667,243.23761982202527L441.646875,240.2462980496883L449.8255208333333,234.72064112499356L458.00416666666666,231.44087700009345L466.18281249999995,230.42290786147117L474.36145833333336,228.04236271858215L482.54010416666665,224.96374175071716L490.71875,220.37734513282777L498.8973958333333,221.7336396074295L507.0760416666667,218.6474000883102L515.2546875,217.89021712303162L523.4333333333333,211.76166070461272L531.6119791666666,210.48014595985413L539.7906250000001,210.5631248903275L547.9692708333333,207.0541708278656L556.1479166666667,205.91717485904692L564.3265624999999,200.475898771286L572.5052083333334,197.46350419044498L580.6838541666667,196.29354783058164L588.8625,194.1572614765167L597.0411458333333,193.31292897224426L605.2197916666667,190.25669626235964L613.3984375,185.37474012374878L621.5770833333333,184.45095752716065L629.7557291666667,181.3707438182831L637.934375,179.63662636756894L646.1130208333333,177.4376190948486L654.2916666666666,174.0217900466919L662.4703125000001,174.18574529647827L670.6489583333333,171.3698798561096L678.8276041666667,169.33822544097902L687.0062499999999,165.71752603530885L695.1848958333334,162.76328268051145L703.3635416666667,162.07472959518432L711.5421875,163.41713342666628L719.7208333333333,159.93969442367555L727.8994791666667,158.42073722839353L736.078125,153.71414079666135L744.2567708333333,154.08779855728147L752.4354166666667,151.5135911178589L760.6140625,150.95076749801635L768.7927083333333,149.4198233985901L776.9713541666666,148.06656160354612L785.1500000000001,148.3937961769104L793.3286458333333,148.83522632598877L801.5072916666667,147.6875827217102L809.6859374999999,147.21176662445066L817.8645833333334,145.08049219131468L826.0432291666667,142.5285975074768L834.221875,142.10940101623535L842.4005208333333,138.1386365509033L850.5791666666667,137.23094675064087L858.7578125,136.86902421951294L866.9364583333333,135.65102676391604L875.1151041666667,129.97728778839112L883.29375,130.4900856781006L891.4723958333333,129.8863972854614" style="fill: none;" fill="none"></path></g><g><path stroke="rgb(238, 51, 119)" stroke-width="2px" d="M81.78645833333333,323.20310497283936L89.96510416666666,318.10429876327515L98.14375000000001,312.36019155502316L106.32239583333333,309.7185281181336L114.50104166666667,308.13765176773074L122.6796875,306.84271377563476L130.85833333333332,303.1618137931824L139.03697916666667,306.0509309387207L147.215625,300.70395914077756L155.39427083333334,301.88395372390744L163.57291666666666,301.46762632369996L171.75156249999998,299.848495426178L179.93020833333333,300.4292598533631L188.10885416666667,298.0458361816406L196.28750000000002,296.6341427230835L204.46614583333334,294.9524778652191L212.64479166666666,295.33382967948916L220.8234375,294.6843868350982L229.00208333333333,292.61433765411374L237.18072916666668,293.0895137786865L245.359375,290.2682301425934L253.53802083333335,290.2498650836945L261.71666666666664,287.9886654090881L269.89531250000005,286.44590338706973L278.07395833333334,284.53381959915157L286.2526041666667,286.9427666759491L294.43125,285.2162641811371L302.6098958333333,282.9882855606079L310.7885416666667,282.884577627182L318.9671875,281.9281995677948L327.1458333333333,283.046382856369L335.32447916666666,282.0369373989105L343.50312499999995,281.48154896736145L351.68177083333336,282.0790713310242L359.86041666666665,277.0581116867065L368.0390625,280.52243484497075L376.21770833333335,277.6382001876831L384.39635416666664,277.25205576896667L392.57500000000005,275.94194539070133L400.75364583333334,276.33415876388545L408.9322916666667,276.52678694725034L417.1109375,275.68236815452576L425.2895833333333,273.9295261096954L433.4682291666667,270.9918105888367L441.646875,270.3051163005829L449.8255208333333,271.6825244808197L458.00416666666666,267.90708471298217L466.18281249999995,269.9005349159241L474.36145833333336,267.30226737976074L482.54010416666665,267.39102583885193L490.71875,265.37380496501925L498.8973958333333,265.8609985542297L507.0760416666667,265.8952550697327L515.2546875,264.4640909814835L523.4333333333333,263.0546823692322L531.6119791666666,260.9261655712128L539.7906250000001,263.40048154354093L547.9692708333333,262.08410806179046L556.1479166666667,259.85921784877775L564.3265624999999,259.6456197738647L572.5052083333334,256.72868898391727L580.6838541666667,260.54057483673097L588.8625,259.0938051223755L597.0411458333333,258.61927076816556L605.2197916666667,258.24761022567753L613.3984375,256.34359261035917L621.5770833333333,255.14860181331633L629.7557291666667,254.1052683639526L637.934375,254.25239916324617L646.1130208333333,251.13848082542418L654.2916666666666,249.71674015522L662.4703125000001,247.42759830236432L670.6489583333333,245.87065351486203L678.8276041666667,244.93414786577225L687.0062499999999,242.50654855132103L695.1848958333334,241.82091444253925L703.3635416666667,239.9693885195255L711.5421875,237.8490830564499L719.7208333333333,237.4489359769225L727.8994791666667,236.71868646889925L736.078125,235.45171330858025L744.2567708333333,234.43610310018062L752.4354166666667,232.4049684381485L760.6140625,230.44712705254557L768.7927083333333,231.26751136541367L776.9713541666666,224.63778083086012L785.1500000000001,224.3731826853752L793.3286458333333,223.07037716388706L801.5072916666667,224.82341335773467L809.6859374999999,220.60853886127475L817.8645833333334,220.01243306636812L826.0432291666667,217.42010325431824L834.221875,215.98126668453213L842.4005208333333,213.78377844810487L850.5791666666667,213.71818484306337L858.7578125,212.92482005119322L866.9364583333333,213.4527112293243L875.1151041666667,208.46804486751557L883.29375,208.32239894866944L891.4723958333333,204.6610900402069" style="fill: none;" fill="none"></path></g><g><path stroke="rgb(51, 187, 238)" stroke-width="2px" d="M81.78645833333333,326.51543102264407L89.96510416666666,315.5075197029114L98.14375000000001,316.98333267211916L106.32239583333333,308.1988374710083L114.50104166666667,306.5106110954285L122.6796875,295.0025179767609L130.85833333333332,292.58115255355835L139.03697916666667,285.51367530822756L147.215625,286.35724919319154L155.39427083333334,281.35156620025634L163.57291666666666,280.5529665756226L171.75156249999998,283.00829010009767L179.93020833333333,281.3446451473236L188.10885416666667,278.9354392051697L196.28750000000002,276.25767843246456L204.46614583333334,273.90403146743773L212.64479166666666,267.2087738418579L220.8234375,266.28274055480955L229.00208333333333,259.41608889579777L237.18072916666668,258.2860679101944L245.359375,260.7978043079376L253.53802083333335,253.22664698600767L261.71666666666664,253.59652782917024L269.89531250000005,249.4066428279877L278.07395833333334,251.5106033706665L286.2526041666667,253.92486797332762L294.43125,258.97874126911165L302.6098958333333,252.04368803501131L310.7885416666667,246.6441458964348L318.9671875,248.17622163295744L327.1458333333333,243.07985531926153L335.32447916666666,239.67250905513762L343.50312499999995,234.23252942889926L351.68177083333336,230.78371852993968L359.86041666666665,227.27388315677646L368.0390625,225.14963673830036L376.21770833333335,220.6741010069847L384.39635416666664,219.32417300224304L392.57500000000005,216.4844254350662L400.75364583333334,217.7178020095825L408.9322916666667,215.28822659969333L417.1109375,206.62778902530667L425.2895833333333,201.3409405040741L433.4682291666667,209.98188048362732L441.646875,205.06372993469242L449.8255208333333,200.72552407264706L458.00416666666666,192.41397228240965L466.18281249999995,190.74328043937683L474.36145833333336,189.71687570571902L482.54010416666665,181.9773372554779L490.71875,186.6790188407898L498.8973958333333,185.48223396301267L507.0760416666667,181.73160212516783L515.2546875,177.17596734046933L523.4333333333333,173.91334703445435L531.6119791666666,172.86445337295532L539.7906250000001,173.29737691879274L547.9692708333333,174.89969594955446L556.1479166666667,178.27842096328737L564.3265624999999,169.56527912139896L572.5052083333334,161.08451927185055L580.6838541666667,157.79360713958738L588.8625,161.8156125640869L597.0411458333333,157.52204299926757L605.2197916666667,160.5686365699768L613.3984375,159.62873960494994L621.5770833333333,156.82618415832516L629.7557291666667,150.5671937561035L637.934375,152.4668412208557L646.1130208333333,147.58044841766358L654.2916666666666,146.381074886322L662.4703125000001,146.97494077682495L670.6489583333333,141.51667125701906L678.8276041666667,137.17766363143923L687.0062499999999,130.72266901016232L695.1848958333334,136.24425987243654L703.3635416666667,140.4856824493408L711.5421875,148.49998849868774L719.7208333333333,146.07050836563107L727.8994791666667,141.3917902946472L736.078125,138.6831670188904L744.2567708333333,132.32740411758425L752.4354166666667,134.206658744812L760.6140625,126.58025524139404L768.7927083333333,137.01982048034668L776.9713541666666,140.82698923110962L785.1500000000001,142.6976509666443L793.3286458333333,138.745330657959L801.5072916666667,141.34777599334717L809.6859374999999,138.9658264160156L817.8645833333334,138.39846546173098L826.0432291666667,143.07164669036865L834.221875,144.0124353027344L842.4005208333333,151.97111406326292L850.5791666666667,156.0408154296875L858.7578125,133.20477790832518L866.9364583333333,123.93254442214965L875.1151041666667,130.34062688827512L883.29375,140.0016545677185L891.4723958333333,139.80363695144652" style="fill: none;" fill="none"></path></g><g><path stroke="rgb(204, 51, 17)" stroke-width="2px" d="M81.78645833333333,326.51543102264407L89.96510416666666,309.95648290634153L98.14375000000001,310.03686059951787L106.32239583333333,307.27345134735106L114.50104166666667,306.5376481437683L122.6796875,300.30600399017334L130.85833333333332,303.20253475189213L139.03697916666667,298.5173666191101L147.215625,294.9779725074768L155.39427083333334,297.3105938529968L163.57291666666666,290.06655245780945L171.75156249999998,291.2849957370758L179.93020833333333,292.4397473526001L188.10885416666667,286.79009004592893L196.28750000000002,284.86014095306393L204.46614583333334,284.6535196590424L212.64479166666666,284.810284204483L220.8234375,279.46158304214475L229.00208333333333,276.6335904788971L237.18072916666668,281.3005948925018L245.359375,274.5334697723389L253.53802083333335,274.7511647510529L261.71666666666664,268.8291415405273L269.89531250000005,269.7717853546143L278.07395833333334,271.38440866470336L286.2526041666667,266.2253874969482L294.43125,267.83678119659425L302.6098958333333,263.64117059707644L310.7885416666667,263.70643342971806L318.9671875,264.111142449379L327.1458333333333,258.9803807497025L335.32447916666666,264.19485842704773L343.50312499999995,259.20374919414525L351.68177083333336,258.7306997203827L359.86041666666665,259.29517360687254L368.0390625,259.51708054065705L376.21770833333335,256.90190586090085L384.39635416666664,257.5806526231766L392.57500000000005,254.38111277103425L400.75364583333334,254.27124779701236L408.9322916666667,253.9335219860077L417.1109375,253.90581080913546L425.2895833333333,252.55021742820742L433.4682291666667,251.35621715068814L441.646875,247.24408613443376L449.8255208333333,248.35466615200045L458.00416666666666,244.24884318113328L466.18281249999995,241.37962181568145L474.36145833333336,240.39132511854172L482.54010416666665,242.5047090792656L490.71875,241.99823900938034L498.8973958333333,239.66485005617142L507.0760416666667,237.80271806895732L515.2546875,233.78334623992444L523.4333333333333,231.9258158540726L531.6119791666666,226.9424914574623L539.7906250000001,224.18941434860227L547.9692708333333,221.1590331196785L556.1479166666667,218.2479492712021L564.3265624999999,214.3347392034531L572.5052083333334,210.76015558242796L580.6838541666667,209.79469746112824L588.8625,210.3030353164673L597.0411458333333,206.1692467975616L605.2197916666667,207.4728585767746L613.3984375,201.7892773246765L621.5770833333333,196.86589913368226L629.7557291666667,195.38697978019712L637.934375,192.5788982772827L646.1130208333333,187.75309075355528L654.2916666666666,190.27734796524047L662.4703125000001,191.66309017181396L670.6489583333333,189.22571105003357L678.8276041666667,184.57720112800598L687.0062499999999,181.18086248397827L695.1848958333334,181.0532742214203L703.3635416666667,182.34989124298096L711.5421875,178.25982939720157L719.7208333333333,176.60923197746277L727.8994791666667,171.7560278701782L736.078125,170.73560220718386L744.2567708333333,168.10974393844606L752.4354166666667,164.07378854751585L760.6140625,163.057159576416L768.7927083333333,164.30295629501342L776.9713541666666,161.8984638595581L785.1500000000001,162.8247632026672L793.3286458333333,166.64728410720826L801.5072916666667,158.95040451049806L809.6859374999999,157.7320115661621L817.8645833333334,154.60885856628417L826.0432291666667,156.17367088317874L834.221875,152.42695438385013L842.4005208333333,159.71609228134153L850.5791666666667,157.71894605636598L858.7578125,153.24122974395752L866.9364583333333,150.1808372116089L875.1151041666667,147.31352228164673L883.29375,149.60368970870974L891.4723958333333,142.90644025802612" style="fill: none;" fill="none"></path></g><g><path stroke="rgb(0, 119, 187)" stroke-width="2px" d="M81.78645833333333,326.51543102264407L89.96510416666666,315.9045760154724L98.14375000000001,313.22645570755003L106.32239583333333,315.17115293502803L114.50104166666667,307.15712013244627L122.6796875,304.4700473976135L130.85833333333332,305.6728077507019L139.03697916666667,300.36632680892944L147.215625,304.0387058067322L155.39427083333334,304.8566628074646L163.57291666666666,299.4818845558167L171.75156249999998,300.5364373016358L179.93020833333333,302.1460045623779L188.10885416666667,298.29388671875L196.28750000000002,298.68616840362546L204.46614583333334,297.9305620002747L212.64479166666666,295.5675779056549L220.8234375,291.57835490226745L229.00208333333333,291.26960762977603L237.18072916666668,290.2662850570679L245.359375,288.0415062999725L253.53802083333335,284.25289316177367L261.71666666666664,285.0552607154846L269.89531250000005,283.3867764186859L278.07395833333334,283.76329967498776L286.2526041666667,283.09282042503355L294.43125,283.28530119895936L302.6098958333333,282.57229252815245L310.7885416666667,281.85377937316895L318.9671875,279.6216589069366L327.1458333333333,275.32797788619996L335.32447916666666,281.77787070274354L343.50312499999995,278.44429252624514L351.68177083333336,278.29547730445864L359.86041666666665,281.6733610057831L368.0390625,278.73505944252014L376.21770833333335,275.6440093421936L384.39635416666664,276.2409959983826L392.57500000000005,277.4892195796967L400.75364583333334,277.4697111988068L408.9322916666667,272.1135065364838L417.1109375,272.1038673973083L425.2895833333333,274.98076753616334L433.4682291666667,275.2859338378906L441.646875,274.8512269973755L449.8255208333333,275.8356380176544L458.00416666666666,273.1866220855713L466.18281249999995,272.65350326538083L474.36145833333336,274.58530036926265L482.54010416666665,270.71888740539555L490.71875,268.9836410140991L498.8973958333333,268.96622153282163L507.0760416666667,270.2806750965118L515.2546875,270.13234165191653L523.4333333333333,268.9169580173492L531.6119791666666,265.2454239273072L539.7906250000001,264.9972439575196L547.9692708333333,266.0670266151428L556.1479166666667,263.4430235481262L564.3265624999999,265.23655059814456L572.5052083333334,259.5783471393585L580.6838541666667,261.89588598251345L588.8625,262.2725027179718L597.0411458333333,262.20442112922666L605.2197916666667,261.0336594104767L613.3984375,258.8033186435699L621.5770833333333,257.3393955039978L629.7557291666667,257.72363618373873L637.934375,258.45014719963075L646.1130208333333,257.3911901473999L654.2916666666666,256.76015730381016L662.4703125000001,256.586223154068L670.6489583333333,256.53281779289244L678.8276041666667,252.31643504619595L687.0062499999999,252.73470393657686L695.1848958333334,252.41791565895082L703.3635416666667,249.74504456520083L711.5421875,250.4448286318779L719.7208333333333,249.76375208139422L727.8994791666667,250.09700886964796L736.078125,250.167855284214L744.2567708333333,250.58427166938782L752.4354166666667,247.9677163743973L760.6140625,247.26768872261047L768.7927083333333,248.12290345907215L776.9713541666666,246.566129450798L785.1500000000001,242.74061092138288L793.3286458333333,240.65878516435623L801.5072916666667,240.3562138080597L809.6859374999999,239.4492448759079L817.8645833333334,236.05711459159852L826.0432291666667,233.99200508743525L834.221875,234.55412064760927L842.4005208333333,232.66624695003034L850.5791666666667,230.22209575772285L858.7578125,226.16077650547027L866.9364583333333,229.11358935952185L875.1151041666667,225.60165070533753L883.29375,223.1918326544762L891.4723958333333,220.22834834575653" style="fill: none;" fill="none"></path></g><g><path stroke="rgb(255, 112, 67)" stroke-width="2px" d="M81.78645833333333,326.2176423835755L89.96510416666666,313.0323210716248L98.14375000000001,320.0894940376282L106.32239583333333,323.7609166717529L114.50104166666667,314.0555295372009L122.6796875,305.35136169433594L130.85833333333332,306.05957416534426L139.03697916666667,301.78070240020753L147.215625,305.82412174224856L155.39427083333334,309.4690466308594L163.57291666666666,298.5463954925537L171.75156249999998,297.5809068107605L179.93020833333333,292.64965839385985L188.10885416666667,291.5184527397156L196.28750000000002,289.419259634018L204.46614583333334,284.22053858757016L212.64479166666666,277.94419342041016L220.8234375,277.92783097267153L229.00208333333333,273.66832736968996L237.18072916666668,270.8796391963959L245.359375,267.449579744339L253.53802083333335,269.91629334449766L261.71666666666664,268.23747241020203L269.89531250000005,271.62919821739195L278.07395833333334,272.84892144203184L286.2526041666667,259.9510287618637L294.43125,259.93782303333285L302.6098958333333,252.46815531253816L310.7885416666667,251.6815228176117L318.9671875,252.73554884433747L327.1458333333333,251.52375157356263L335.32447916666666,245.73099205970763L343.50312499999995,235.8484436659515L351.68177083333336,231.8257616972923L359.86041666666665,225.98357328176496L368.0390625,229.33450352668766L376.21770833333335,227.1438752222061L384.39635416666664,225.1472943663597L392.57500000000005,216.8322757577896L400.75364583333334,215.19502967834472L408.9322916666667,214.60132917404172L417.1109375,216.03355209350585L425.2895833333333,200.07428714752197L433.4682291666667,200.69487010002135L441.646875,198.9942721176147L449.8255208333333,197.86804962158203L458.00416666666666,191.1345482349396L466.18281249999995,198.3813220977783L474.36145833333336,205.52800674915315L482.54010416666665,194.65251764297483L490.71875,202.3645840072632L498.8973958333333,200.56610975265505L507.0760416666667,187.91264888763428L515.2546875,177.18210101127625L523.4333333333333,179.01433921813964L531.6119791666666,174.04386550903322L539.7906250000001,172.98839954376223L547.9692708333333,166.64340112686156L556.1479166666667,158.4488097381592L564.3265624999999,148.0202175140381L572.5052083333334,162.25999809265136L580.6838541666667,160.7880249595642L588.8625,158.74846076965332L597.0411458333333,161.6287908744812L605.2197916666667,159.10184074401855L613.3984375,150.55434396743775L621.5770833333333,151.7012756919861L629.7557291666667,133.90835956573488L637.934375,148.10014938354493L646.1130208333333,130.15819152832032L654.2916666666666,132.36534946441648L662.4703125000001,125.74701080322268L670.6489583333333,118.23852766036985L678.8276041666667,123.11995887756348L687.0062499999999,126.38839286804198L695.1848958333334,120.52408584594728L703.3635416666667,122.06119237899782L711.5421875,128.87491685867312L719.7208333333333,122.8798828315735L727.8994791666667,129.4356911277771L736.078125,139.44664724349977L744.2567708333333,125.27977321624755L752.4354166666667,113.55875255584718L760.6140625,86.36645690917967L768.7927083333333,64.91576610565187L776.9713541666666,47.436903991699225L785.1500000000001,35.8111457824707L793.3286458333333,37.2248670196533L801.5072916666667,73.80871150970458L809.6859374999999,81.52456737518311L817.8645833333334,71.36751052856445L826.0432291666667,86.03345539093019L834.221875,103.45605743408201L842.4005208333333,77.09745204925535L850.5791666666667,60.65842330932615L858.7578125,67.38594562530518L866.9364583333333,63.00115478515623L875.1151041666667,74.52624313354491L883.29375,80.25720573425293L891.4723958333333,112.37224319458008" style="fill: none;" fill="none"></path></g><g><path stroke="rgb(187, 187, 187)" stroke-width="2px" d="M81.78645833333333,326.2176423835755L89.96510416666666,316.06481367111206L98.14375000000001,322.2898136138916L106.32239583333333,316.1587242698669L114.50104166666667,309.5032384300232L122.6796875,305.23856830596924L130.85833333333332,305.6385799980163L139.03697916666667,302.8846912384033L147.215625,306.45813333511353L155.39427083333334,308.46785610198975L163.57291666666666,299.9424132156372L171.75156249999998,293.1981617259979L179.93020833333333,290.7083803462982L188.10885416666667,295.5688254928589L196.28750000000002,284.0742005634308L204.46614583333334,295.09578500747676L212.64479166666666,290.96139966011043L220.8234375,285.1593281841278L229.00208333333333,285.2156745433807L237.18072916666668,282.1563282585144L245.359375,285.7072454738617L253.53802083333335,279.72597805023196L261.71666666666664,278.03357387542724L269.89531250000005,271.8360028743744L278.07395833333334,272.62457506179805L286.2526041666667,276.18372563362124L294.43125,270.94990316390994L302.6098958333333,269.38881563186646L310.7885416666667,271.3069539928436L318.9671875,263.158201546669L327.1458333333333,272.16659910202026L335.32447916666666,264.8191949272156L343.50312499999995,264.00515865802765L351.68177083333336,266.41433403968813L359.86041666666665,264.6092659091949L368.0390625,263.80596536159516L376.21770833333335,258.77659439086915L384.39635416666664,256.1809083175659L392.57500000000005,263.30381870269775L400.75364583333334,255.78798845767977L408.9322916666667,248.29233173370363L417.1109375,258.4333622980118L425.2895833333333,247.46585195064546L433.4682291666667,240.09777764678L441.646875,242.02790246248247L449.8255208333333,244.32980332136157L458.00416666666666,241.1599866950512L466.18281249999995,242.83311304092405L474.36145833333336,234.78826655343178L482.54010416666665,243.2264481639862L490.71875,236.02452308930455L498.8973958333333,229.0229015445709L507.0760416666667,234.65484522521496L515.2546875,229.82296987056733L523.4333333333333,226.5857579183578L531.6119791666666,225.5329318404198L539.7906250000001,228.04186566114427L547.9692708333333,223.33824258565906L556.1479166666667,223.09329303979874L564.3265624999999,222.25453423023222L572.5052083333334,217.898337225914L580.6838541666667,220.55068065643312L588.8625,208.4569568014145L597.0411458333333,206.4467540550232L605.2197916666667,214.94025223731998L613.3984375,202.39560470581057L621.5770833333333,204.9773300266266L629.7557291666667,193.64103362083435L637.934375,194.57109729766844L646.1130208333333,191.6908534812927L654.2916666666666,184.574871339798L662.4703125000001,187.36327907562256L670.6489583333333,186.0468732357025L678.8276041666667,187.98809735298155L687.0062499999999,190.48181204795839L695.1848958333334,181.10371701240538L703.3635416666667,186.18007743835446L711.5421875,188.40558605194093L719.7208333333333,180.82066931724546L727.8994791666667,182.35277112007142L736.078125,175.88623901367185L744.2567708333333,171.42646350860593L752.4354166666667,181.86352997779846L760.6140625,171.50221038818358L768.7927083333333,167.29513061523434L776.9713541666666,156.2966247367859L785.1500000000001,166.7315447807312L793.3286458333333,169.32549070358277L801.5072916666667,174.87073179244993L809.6859374999999,170.12104146957395L817.8645833333334,178.29252193450927L826.0432291666667,163.5977926826477L834.221875,156.41591133117674L842.4005208333333,165.45745264053346L850.5791666666667,168.4549408912659L858.7578125,151.7630797958374L866.9364583333333,160.93847606658935L875.1151041666667,151.9230082511902L883.29375,143.02427433013915L891.4723958333333,142.66955688476563" style="fill: none;" fill="none"></path></g><g><path stroke="rgb(0, 153, 136)" stroke-width="2px" d="M81.78645833333333,326.2176423835755L89.96510416666666,317.8810345840454L98.14375000000001,318.3731376266479L106.32239583333333,316.9408428001404L114.50104166666667,308.3334977912903L122.6796875,306.6065710449219L130.85833333333332,306.3328928375244L139.03697916666667,309.3522408294678L147.215625,306.8096796798706L155.39427083333334,305.7169514846802L163.57291666666666,308.17491399765015L171.75156249999998,301.8717007637024L179.93020833333333,299.42159769058225L188.10885416666667,307.0836598968506L196.28750000000002,298.9528212928772L204.46614583333334,299.0266698265076L212.64479166666666,305.81391813278196L220.8234375,295.25022695541384L229.00208333333333,303.2728742218017L237.18072916666668,294.25468112945555L245.359375,299.90371284484866L253.53802083333335,293.24569228172305L261.71666666666664,293.89411404609683L269.89531250000005,293.3975923156738L278.07395833333334,289.8082551670074L286.2526041666667,293.2712372589111L294.43125,290.36489478111264L302.6098958333333,287.187833070755L310.7885416666667,289.5482177257538L318.9671875,289.6143686103821L327.1458333333333,288.35835390090944L335.32447916666666,286.7025647926331L343.50312499999995,289.0511926460266L351.68177083333336,287.58769735336307L359.86041666666665,283.4885608386993L368.0390625,286.5339535617829L376.21770833333335,290.0374480819702L384.39635416666664,282.6897275161743L392.57500000000005,284.988707151413L400.75364583333334,282.9046432876587L408.9322916666667,278.7651633262634L417.1109375,278.92777391433714L425.2895833333333,283.01670322418215L433.4682291666667,274.8207420063019L441.646875,278.6894236373902L449.8255208333333,271.0550600242615L458.00416666666666,275.69878812789915L466.18281249999995,276.25442463874816L474.36145833333336,271.3790012550354L482.54010416666665,269.5434157752991L490.71875,267.39489084243775L498.8973958333333,270.1809364318848L507.0760416666667,266.40078315734866L515.2546875,271.5750270462036L523.4333333333333,269.95331109046936L531.6119791666666,263.4451753664017L539.7906250000001,271.62319038391115L547.9692708333333,274.85227324485777L556.1479166666667,272.86643799781797L564.3265624999999,271.4780316352844L572.5052083333334,267.89438592910767L580.6838541666667,265.97751313209534L588.8625,266.45220747947695L597.0411458333333,266.43502888679507L605.2197916666667,266.1183790302277L613.3984375,269.7869038105011L621.5770833333333,262.9262833547592L629.7557291666667,265.2830151319504L637.934375,263.9376792907715L646.1130208333333,258.4960975980759L654.2916666666666,260.95675482749937L662.4703125000001,261.9134492778778L670.6489583333333,264.94852873325345L678.8276041666667,260.86343746185304L687.0062499999999,260.32441687107087L695.1848958333334,257.3812957382202L703.3635416666667,261.8991056203842L711.5421875,260.8179005289078L719.7208333333333,257.02503229141234L727.8994791666667,257.70680993556977L736.078125,259.05198039054875L744.2567708333333,255.7965094423294L752.4354166666667,251.8230394744873L760.6140625,259.41830183506016L768.7927083333333,253.86734054088595L776.9713541666666,254.86523772716524L785.1500000000001,253.3550819540024L793.3286458333333,256.6169957733154L801.5072916666667,260.21810050964353L809.6859374999999,257.4598415994644L817.8645833333334,256.812759103775L826.0432291666667,259.2531798934936L834.221875,254.00831609725952L842.4005208333333,250.85641106605527L850.5791666666667,253.11870732307432L858.7578125,248.44057169914248L866.9364583333333,249.20633047819138L875.1151041666667,251.68964831352233L883.29375,247.41813982963563L891.4723958333333,250.3619476747513" style="fill: none;" fill="none"></path></g></g></g></g></g></g><g transform="translate(51, 377)" clip-path="url(#clip_1)"><clipPath id="clip_1"><rect width="981" height="23"></rect></clipPath><g><g><line x1="0" y1="0" x2="0" y2="5" style="visibility: inherit;" fill="rgb(0, 0, 0)" stroke="rgb(204, 204, 204)" stroke-width="1px"></line><line x1="81.78645833333333" y1="0" x2="81.78645833333333" y2="5" style="visibility: inherit;" fill="rgb(0, 0, 0)" stroke="rgb(204, 204, 204)" stroke-width="1px"></line><line x1="163.57291666666666" y1="0" x2="163.57291666666666" y2="5" style="visibility: inherit;" fill="rgb(0, 0, 0)" stroke="rgb(204, 204, 204)" stroke-width="1px"></line><line x1="245.359375" y1="0" x2="245.359375" y2="5" style="visibility: inherit;" fill="rgb(0, 0, 0)" stroke="rgb(204, 204, 204)" stroke-width="1px"></line><line x1="327.1458333333333" y1="0" x2="327.1458333333333" y2="5" style="visibility: inherit;" fill="rgb(0, 0, 0)" stroke="rgb(204, 204, 204)" stroke-width="1px"></line><line x1="408.9322916666667" y1="0" x2="408.9322916666667" y2="5" style="visibility: inherit;" fill="rgb(0, 0, 0)" stroke="rgb(204, 204, 204)" stroke-width="1px"></line><line x1="490.71875" y1="0" x2="490.71875" y2="5" style="visibility: inherit;" fill="rgb(0, 0, 0)" stroke="rgb(204, 204, 204)" stroke-width="1px"></line><line x1="572.5052083333334" y1="0" x2="572.5052083333334" y2="5" style="visibility: inherit;" fill="rgb(0, 0, 0)" stroke="rgb(204, 204, 204)" stroke-width="1px"></line><line x1="654.2916666666666" y1="0" x2="654.2916666666666" y2="5" style="visibility: inherit;" fill="rgb(0, 0, 0)" stroke="rgb(204, 204, 204)" stroke-width="1px"></line><line x1="736.078125" y1="0" x2="736.078125" y2="5" style="visibility: inherit;" fill="rgb(0, 0, 0)" stroke="rgb(204, 204, 204)" stroke-width="1px"></line><line x1="817.8645833333334" y1="0" x2="817.8645833333334" y2="5" style="visibility: inherit;" fill="rgb(0, 0, 0)" stroke="rgb(204, 204, 204)" stroke-width="1px"></line><line x1="899.6510416666666" y1="0" x2="899.6510416666666" y2="5" style="visibility: inherit;" fill="rgb(0, 0, 0)" stroke="rgb(204, 204, 204)" stroke-width="1px"></line><line x1="981.4375" y1="0" x2="981.4375" y2="5" style="visibility: inherit;" fill="rgb(0, 0, 0)" stroke="rgb(204, 204, 204)" stroke-width="1px"></line></g><g transform="translate(0, 8)"><text x="0" y="0" dx="0em" dy="0.95em" style="text-anchor: middle; visibility: hidden; font-family: Roboto, sans-serif; font-size: 12px; font-weight: 200;" fill="rgb(255, 255, 255)" stroke="none" stroke-width="1px">-10</text><text x="81.78645833333333" y="0" dx="0em" dy="0.95em" style="text-anchor: middle; visibility: inherit; font-family: Roboto, sans-serif; font-size: 12px; font-weight: 200;" fill="rgb(255, 255, 255)" stroke="none" stroke-width="1px">0</text><text x="163.57291666666666" y="0" dx="0em" dy="0.95em" style="text-anchor: middle; visibility: inherit; font-family: Roboto, sans-serif; font-size: 12px; font-weight: 200;" fill="rgb(255, 255, 255)" stroke="none" stroke-width="1px">10</text><text x="245.359375" y="0" dx="0em" dy="0.95em" style="text-anchor: middle; visibility: inherit; font-family: Roboto, sans-serif; font-size: 12px; font-weight: 200;" fill="rgb(255, 255, 255)" stroke="none" stroke-width="1px">20</text><text x="327.1458333333333" y="0" dx="0em" dy="0.95em" style="text-anchor: middle; visibility: inherit; font-family: Roboto, sans-serif; font-size: 12px; font-weight: 200;" fill="rgb(255, 255, 255)" stroke="none" stroke-width="1px">30</text><text x="408.9322916666667" y="0" dx="0em" dy="0.95em" style="text-anchor: middle; visibility: inherit; font-family: Roboto, sans-serif; font-size: 12px; font-weight: 200;" fill="rgb(255, 255, 255)" stroke="none" stroke-width="1px">40</text><text x="490.71875" y="0" dx="0em" dy="0.95em" style="text-anchor: middle; visibility: inherit; font-family: Roboto, sans-serif; font-size: 12px; font-weight: 200;" fill="rgb(255, 255, 255)" stroke="none" stroke-width="1px">50</text><text x="572.5052083333334" y="0" dx="0em" dy="0.95em" style="text-anchor: middle; visibility: inherit; font-family: Roboto, sans-serif; font-size: 12px; font-weight: 200;" fill="rgb(255, 255, 255)" stroke="none" stroke-width="1px">60</text><text x="654.2916666666666" y="0" dx="0em" dy="0.95em" style="text-anchor: middle; visibility: inherit; font-family: Roboto, sans-serif; font-size: 12px; font-weight: 200;" fill="rgb(255, 255, 255)" stroke="none" stroke-width="1px">70</text><text x="736.078125" y="0" dx="0em" dy="0.95em" style="text-anchor: middle; visibility: inherit; font-family: Roboto, sans-serif; font-size: 12px; font-weight: 200;" fill="rgb(255, 255, 255)" stroke="none" stroke-width="1px">80</text><text x="817.8645833333334" y="0" dx="0em" dy="0.95em" style="text-anchor: middle; visibility: inherit; font-family: Roboto, sans-serif; font-size: 12px; font-weight: 200;" fill="rgb(255, 255, 255)" stroke="none" stroke-width="1px">90</text><text x="899.6510416666666" y="0" dx="0em" dy="0.95em" style="text-anchor: middle; visibility: inherit; font-family: Roboto, sans-serif; font-size: 12px; font-weight: 200;" fill="rgb(255, 255, 255)" stroke="none" stroke-width="1px">100</text><text x="981.4375" y="0" dx="0em" dy="0.95em" style="text-anchor: middle; visibility: hidden; font-family: Roboto, sans-serif; font-size: 12px; font-weight: 200;" fill="rgb(255, 255, 255)" stroke="none" stroke-width="1px">110</text></g><line x1="0" y1="0" x2="981.4375" y2="0" fill="rgb(0, 0, 0)" stroke="rgb(204, 204, 204)" stroke-width="1px"></line></g></g></g></g></svg>