<svg viewBox="0 0 1033 400" xmlns="http://www.w3.org/2000/svg"><g><g><g><g><g><line x1="72.34375" y1="377" x2="67.34375" y2="377" style="visibility: inherit;" fill="rgb(0, 0, 0)" stroke="rgb(204, 204, 204)" stroke-width="1px"></line><line x1="72.34375" y1="345.5833333333333" x2="67.34375" y2="345.5833333333333" style="visibility: inherit;" fill="rgb(0, 0, 0)" stroke="rgb(204, 204, 204)" stroke-width="1px"></line><line x1="72.34375" y1="314.1666666666667" x2="67.34375" y2="314.1666666666667" style="visibility: inherit;" fill="rgb(0, 0, 0)" stroke="rgb(204, 204, 204)" stroke-width="1px"></line><line x1="72.34375" y1="282.75" x2="67.34375" y2="282.75" style="visibility: inherit;" fill="rgb(0, 0, 0)" stroke="rgb(204, 204, 204)" stroke-width="1px"></line><line x1="72.34375" y1="251.33333333333337" x2="67.34375" y2="251.33333333333337" style="visibility: inherit;" fill="rgb(0, 0, 0)" stroke="rgb(204, 204, 204)" stroke-width="1px"></line><line x1="72.34375" y1="219.91666666666663" x2="67.34375" y2="219.91666666666663" style="visibility: inherit;" fill="rgb(0, 0, 0)" stroke="rgb(204, 204, 204)" stroke-width="1px"></line><line x1="72.34375" y1="188.5" x2="67.34375" y2="188.5" style="visibility: inherit;" fill="rgb(0, 0, 0)" stroke="rgb(204, 204, 204)" stroke-width="1px"></line><line x1="72.34375" y1="157.08333333333331" x2="67.34375" y2="157.08333333333331" style="visibility: inherit;" fill="rgb(0, 0, 0)" stroke="rgb(204, 204, 204)" stroke-width="1px"></line><line x1="72.34375" y1="125.66666666666669" x2="67.34375" y2="125.66666666666669" style="visibility: inherit;" fill="rgb(0, 0, 0)" stroke="rgb(204, 204, 204)" stroke-width="1px"></line><line x1="72.34375" y1="94.25" x2="67.34375" y2="94.25" style="visibility: inherit;" fill="rgb(0, 0, 0)" stroke="rgb(204, 204, 204)" stroke-width="1px"></line><line x1="72.34375" y1="62.83333333333332" x2="67.34375" y2="62.83333333333332" style="visibility: inherit;" fill="rgb(0, 0, 0)" stroke="rgb(204, 204, 204)" stroke-width="1px"></line><line x1="72.34375" y1="31.416666666666682" x2="67.34375" y2="31.416666666666682" style="visibility: inherit;" fill="rgb(0, 0, 0)" stroke="rgb(204, 204, 204)" stroke-width="1px"></line><line x1="72.34375" y1="0" x2="67.34375" y2="0" style="visibility: inherit;" fill="rgb(0, 0, 0)" stroke="rgb(204, 204, 204)" stroke-width="1px"></line></g><g transform="translate(62.34375, 0)"><text x="0" y="377" dx="0em" dy="0.3em" style="text-anchor: end; visibility: hidden; font-family: Roboto, sans-serif; font-size: 12px; font-weight: 200;" fill="rgb(255, 255, 255)" stroke="none" stroke-width="1px">-100</text><text x="0" y="345.5833333333333" dx="0em" dy="0.3em" style="text-anchor: end; visibility: inherit; font-family: Roboto, sans-serif; font-size: 12px; font-weight: 200;" fill="rgb(255, 255, 255)" stroke="none" stroke-width="1px">0</text><text x="0" y="314.1666666666667" dx="0em" dy="0.3em" style="text-anchor: end; visibility: inherit; font-family: Roboto, sans-serif; font-size: 12px; font-weight: 200;" fill="rgb(255, 255, 255)" stroke="none" stroke-width="1px">100</text><text x="0" y="282.75" dx="0em" dy="0.3em" style="text-anchor: end; visibility: inherit; font-family: Roboto, sans-serif; font-size: 12px; font-weight: 200;" fill="rgb(255, 255, 255)" stroke="none" stroke-width="1px">200</text><text x="0" y="251.33333333333337" dx="0em" dy="0.3em" style="text-anchor: end; visibility: inherit; font-family: Roboto, sans-serif; font-size: 12px; font-weight: 200;" fill="rgb(255, 255, 255)" stroke="none" stroke-width="1px">300</text><text x="0" y="219.91666666666663" dx="0em" dy="0.3em" style="text-anchor: end; visibility: inherit; font-family: Roboto, sans-serif; font-size: 12px; font-weight: 200;" fill="rgb(255, 255, 255)" stroke="none" stroke-width="1px">400</text><text x="0" y="188.5" dx="0em" dy="0.3em" style="text-anchor: end; visibility: inherit; font-family: Roboto, sans-serif; font-size: 12px; font-weight: 200;" fill="rgb(255, 255, 255)" stroke="none" stroke-width="1px">500</text><text x="0" y="157.08333333333331" dx="0em" dy="0.3em" style="text-anchor: end; visibility: inherit; font-family: Roboto, sans-serif; font-size: 12px; font-weight: 200;" fill="rgb(255, 255, 255)" stroke="none" stroke-width="1px">600</text><text x="0" y="125.66666666666669" dx="0em" dy="0.3em" style="text-anchor: end; visibility: inherit; font-family: Roboto, sans-serif; font-size: 12px; font-weight: 200;" fill="rgb(255, 255, 255)" stroke="none" stroke-width="1px">700</text><text x="0" y="94.25" dx="0em" dy="0.3em" style="text-anchor: end; visibility: inherit; font-family: Roboto, sans-serif; font-size: 12px; font-weight: 200;" fill="rgb(255, 255, 255)" stroke="none" stroke-width="1px">800</text><text x="0" y="62.83333333333332" dx="0em" dy="0.3em" style="text-anchor: end; visibility: inherit; font-family: Roboto, sans-serif; font-size: 12px; font-weight: 200;" fill="rgb(255, 255, 255)" stroke="none" stroke-width="1px">900</text><text x="0" y="31.416666666666682" dx="0em" dy="0.3em" style="text-anchor: end; visibility: inherit; font-family: Roboto, sans-serif; font-size: 12px; font-weight: 200;" fill="rgb(255, 255, 255)" stroke="none" stroke-width="1px">1e+3</text><text x="0" y="0" dx="0em" dy="0.3em" style="text-anchor: end; visibility: hidden; font-family: Roboto, sans-serif; font-size: 12px; font-weight: 200;" fill="rgb(255, 255, 255)" stroke="none" stroke-width="1px">1.1e+3</text></g><line x1="72.34375" y1="0" x2="72.34375" y2="377" fill="rgb(0, 0, 0)" stroke="rgb(204, 204, 204)" stroke-width="1px"></line></g></g><g transform="translate(72, 0)" clip-path="url(#clip_0)"><clipPath id="clip_0"><rect width="960" height="377"></rect></clipPath><g><g><g><line x1="0" y1="0" x2="0" y2="377" fill="rgb(0, 0, 0)" stroke="rgb(189, 189, 189)" stroke-width="1px" opacity="0.25"></line><line x1="80.0546875" y1="0" x2="80.0546875" y2="377" fill="rgb(0, 0, 0)" stroke="rgb(189, 189, 189)" stroke-width="1px" opacity="0.25"></line><line x1="160.109375" y1="0" x2="160.109375" y2="377" fill="rgb(0, 0, 0)" stroke="rgb(189, 189, 189)" stroke-width="1px" opacity="0.25"></line><line x1="240.1640625" y1="0" x2="240.1640625" y2="377" fill="rgb(0, 0, 0)" stroke="rgb(189, 189, 189)" stroke-width="1px" opacity="0.25"></line><line x1="320.21875" y1="0" x2="320.21875" y2="377" fill="rgb(0, 0, 0)" stroke="rgb(189, 189, 189)" stroke-width="1px" opacity="0.25"></line><line x1="400.2734375" y1="0" x2="400.2734375" y2="377" fill="rgb(0, 0, 0)" stroke="rgb(189, 189, 189)" stroke-width="1px" opacity="0.25"></line><line x1="480.328125" y1="0" x2="480.328125" y2="377" fill="rgb(0, 0, 0)" stroke="rgb(189, 189, 189)" stroke-width="1px" opacity="0.25"></line><line x1="560.3828125" y1="0" x2="560.3828125" y2="377" fill="rgb(0, 0, 0)" stroke="rgb(189, 189, 189)" stroke-width="1px" opacity="0.25"></line><line x1="640.4375" y1="0" x2="640.4375" y2="377" fill="rgb(0, 0, 0)" stroke="rgb(189, 189, 189)" stroke-width="1px" opacity="0.25"></line><line x1="720.4921875" y1="0" x2="720.4921875" y2="377" fill="rgb(0, 0, 0)" stroke="rgb(189, 189, 189)" stroke-width="1px" opacity="0.25"></line><line x1="800.546875" y1="0" x2="800.546875" y2="377" fill="rgb(0, 0, 0)" stroke="rgb(189, 189, 189)" stroke-width="1px" opacity="0.25"></line><line x1="880.6015625" y1="0" x2="880.6015625" y2="377" fill="rgb(0, 0, 0)" stroke="rgb(189, 189, 189)" stroke-width="1px" opacity="0.25"></line><line x1="960.65625" y1="0" x2="960.65625" y2="377" fill="rgb(0, 0, 0)" stroke="rgb(189, 189, 189)" stroke-width="1px" opacity="0.25"></line></g><g><line x1="0" y1="377" x2="960.65625" y2="377" fill="rgb(0, 0, 0)" stroke="rgb(189, 189, 189)" stroke-width="1px" opacity="0.25"></line><line x1="0" y1="345.5833333333333" x2="960.65625" y2="345.5833333333333" fill="rgb(0, 0, 0)" stroke="rgb(189, 189, 189)" stroke-width="1px" opacity="0.25"></line><line x1="0" y1="314.1666666666667" x2="960.65625" y2="314.1666666666667" fill="rgb(0, 0, 0)" stroke="rgb(189, 189, 189)" stroke-width="1px" opacity="0.25"></line><line x1="0" y1="282.75" x2="960.65625" y2="282.75" fill="rgb(0, 0, 0)" stroke="rgb(189, 189, 189)" stroke-width="1px" opacity="0.25"></line><line x1="0" y1="251.33333333333337" x2="960.65625" y2="251.33333333333337" fill="rgb(0, 0, 0)" stroke="rgb(189, 189, 189)" stroke-width="1px" opacity="0.25"></line><line x1="0" y1="219.91666666666663" x2="960.65625" y2="219.91666666666663" fill="rgb(0, 0, 0)" stroke="rgb(189, 189, 189)" stroke-width="1px" opacity="0.25"></line><line x1="0" y1="188.5" x2="960.65625" y2="188.5" fill="rgb(0, 0, 0)" stroke="rgb(189, 189, 189)" stroke-width="1px" opacity="0.25"></line><line x1="0" y1="157.08333333333331" x2="960.65625" y2="157.08333333333331" fill="rgb(0, 0, 0)" stroke="rgb(189, 189, 189)" stroke-width="1px" opacity="0.25"></line><line x1="0" y1="125.66666666666669" x2="960.65625" y2="125.66666666666669" fill="rgb(0, 0, 0)" stroke="rgb(189, 189, 189)" stroke-width="1px" opacity="0.25"></line><line x1="0" y1="94.25" x2="960.65625" y2="94.25" fill="rgb(0, 0, 0)" stroke="rgb(189, 189, 189)" stroke-width="1px" opacity="0.25"></line><line x1="0" y1="62.83333333333332" x2="960.65625" y2="62.83333333333332" fill="rgb(0, 0, 0)" stroke="rgb(189, 189, 189)" stroke-width="1px" opacity="0.25"></line><line x1="0" y1="31.416666666666682" x2="960.65625" y2="31.416666666666682" fill="rgb(0, 0, 0)" stroke="rgb(189, 189, 189)" stroke-width="1px" opacity="0.25"></line><line x1="0" y1="0" x2="960.65625" y2="0" fill="rgb(0, 0, 0)" stroke="rgb(189, 189, 189)" stroke-width="1px" opacity="0.25"></line></g></g></g><g><g><line x1="0" y1="345.5833333333333" x2="960.65625" y2="345.5833333333333" fill="rgb(0, 0, 0)" stroke="rgb(153, 153, 153)" stroke-width="1.5px"></line></g></g><g><g><line x1="80.0546875" y1="0" x2="80.0546875" y2="377" fill="rgb(0, 0, 0)" stroke="rgb(153, 153, 153)" stroke-width="1.5px"></line></g></g><g><g><g><g><g><path stroke="rgb(238, 51, 119)" stroke-width="2px" d="M80.0546875,342.7501727509499L88.06015624999999,341.1795493337512L96.06562500000001,338.56427462845437L104.07109375,338.2403575518172L112.07656250000001,337.14145106247946L120.08203125,337.1030330855748L128.0875,335.7400092832944L136.09296874999998,331.57252873319356L144.0984375,319.73122585594194L152.10390625,321.52080109079066L160.109375,318.379249865784L168.11484374999998,321.7800312809491L176.12031249999998,325.315858867218L184.12578125000002,328.68739181980897L192.13125000000002,329.5455508809225L200.13671875,328.324221300372L208.1421875,324.23133999214264L216.14765625,318.431584916666L224.15312500000002,319.316338491657L232.15859375,321.5449262423601L240.1640625,323.2119089806007L248.16953125000003,324.2827636497987L256.175,323.9392999858047L264.18046875000005,322.97443283636306L272.18593749999997,324.6455531819566L280.19140625,322.29710536134195L288.196875,320.3015945077524L296.20234375,317.9047429372265L304.2078125,316.3466785215902L312.21328125,313.3941914323635L320.21875,310.7709586363187L328.22421875000003,307.4324499160906L336.22968749999995,301.7782789295345L344.23515625,294.627745569801L352.24062499999997,283.49906381723736L360.24609375,269.1876048093946L368.25156250000003,242.02300588362144L376.25703125,157.78046988403077L384.26250000000005,107.23494848447397L392.26796874999997,76.90763571681103L400.2734375,58.71124808215893L408.27890625,47.79341551070803L416.284375,41.24271597119999L424.28984375,37.31229624870575L432.2953125,62.035211085126626L440.30078125,150.32112665658215L448.30625000000003,164.3988426611427L456.31171874999995,111.205972262158L464.3171875,179.71886177516927L472.32265624999997,229.5866087321713L480.328125,261.9357648559554L488.33359375,279.9936438857531L496.33906250000007,287.90013816455485L504.34453125000005,284.4326166155669L512.35,183.22623663594317L520.35546875,122.50240864820965L528.3609375000001,91.2832785222521L536.3664062500001,67.33663378001467L544.3718749999999,129.79287043525022L552.3773437499999,90.44238892781487L560.3828125,66.83210002335491L568.38828125,129.1131501812504L576.39375,197.825140108751L584.3992187499999,154.44725073191697L592.4046875,105.23501710581667L600.41015625,75.70767693015657L608.415625,57.991272824760614L616.4210937500001,47.36143036152301L624.4265625,40.9835248835805L632.43203125,37.156781596814945L640.4375,34.86073562475561L648.4429687500001,33.48310804152002L656.4484375000001,32.65653149157866L664.4539062499999,151.8409491543975L672.4593749999999,103.67123615930517L680.46484375,74.7694083622498L688.4703125,57.42831168401655L696.47578125,47.023653677076574L704.4812499999999,145.25174712262782L712.48671875,215.21375925685308L720.4921875,259.5074222207785L728.49765625,286.5160612883997L736.5031250000001,302.632538762023L744.50859375,307.8012173820714L752.5140625,280.4387304292428L760.51953125,180.82990492421237L768.5250000000001,121.0646096211941L776.5304687500001,85.20543243938313L784.5359374999999,183.78901306597564L792.5414062499999,246.85535229632163L800.546875,281.5991371971899L808.55234375,299.84829734618665L816.5578125,309.596978407712L824.5632812499999,313.5805204517113L832.56875,312.0556456043601L840.57421875,290.56280402928274L848.5796875,186.90434908423632L856.5851562500001,124.70927611720847L864.590625,87.39223233699174L872.59609375,65.00200606886172" style="fill: none;" fill="none"></path></g></g></g></g><g opacity="0.2"><g><g><g><path stroke="rgb(238, 51, 119)" stroke-width="2px" d="M80.0546875,342.7501727509499L88.06015624999999,340.237175283432L96.06562500000001,336.05361091136933L104.07109375,337.859431069692L112.07656250000001,335.70671875L120.08203125,337.049887193044L128.0875,333.79086343765255L136.09296874999998,325.4963020833333L144.0984375,302.2676041666667L152.10390625,324.1781117502848L160.109375,313.69541666666663L168.11484374999998,326.862696501414L176.12031249999998,330.608055156072L184.12578125000002,333.73808606465656L192.13125000000002,330.83178073883056L200.13671875,326.4930883057912L208.1421875,318.09375L216.14765625,309.7334248606364L224.15312500000002,320.6433340708415L232.15859375,324.8876041666667L240.1640625,325.71229166666666L248.16953125000003,325.8890104166667L256.175,323.4241112709045L264.18046875000005,321.52714354197184L272.18593749999997,327.1522218227386L280.19140625,318.7744436454773L288.196875,317.30833333333334L296.20234375,314.30946926116945L304.2078125,314.0095833333333L312.21328125,308.9654624303182L320.21875,306.83611031214394L328.22421875000003,302.4246875L336.22968749999995,293.2970231246948L344.23515625,283.90194604237877L352.24062499999997,266.80604166666666L360.24609375,247.72041666666667L368.25156250000003,201.2761079152425L376.25703125,31.416666666666682L384.26250000000005,31.416666666666682L392.26796874999997,31.416666666666682L400.2734375,31.416666666666682L408.27890625,31.416666666666682L416.284375,31.416666666666682L424.28984375,31.416666666666682L432.2953125,99.11958333333334L440.30078125,282.75L448.30625000000003,185.51541666666665L456.31171874999995,31.416666666666682L464.3171875,282.4881960423787L472.32265624999997,304.38822916666663L480.328125,310.45949904123944L488.33359375,307.0804624303182L496.33906250000007,299.759879582723L504.34453125000005,279.2313342920939L512.35,31.416666666666682L520.35546875,31.416666666666682L528.3609375000001,44.45458333333333L536.3664062500001,31.416666666666682L544.3718749999999,223.47722541809085L552.3773437499999,31.416666666666682L560.3828125,31.416666666666682L568.38828125,222.53472541809083L576.39375,300.893125L584.3992187499999,89.38041666666666L592.4046875,31.416666666666682L600.41015625,31.416666666666682L608.415625,31.416666666666682L616.4210937500001,31.416666666666682L624.4265625,31.416666666666682L632.43203125,31.416666666666682L640.4375,31.416666666666682L648.4429687500001,31.416666666666682L656.4484375000001,31.416666666666682L664.4539062499999,330.6175756486257L672.4593749999999,31.416666666666682L680.46484375,31.416666666666682L688.4703125,31.416666666666682L696.47578125,31.416666666666682L704.4812499999999,292.59388729095457L712.48671875,320.15677745819096L720.4921875,325.9479166666667L728.49765625,327.02901988983155L736.5031250000001,326.8072549724579L744.50859375,315.554235312144L752.5140625,239.395L760.51953125,31.416666666666682L768.5250000000001,31.416666666666682L776.5304687500001,31.416666666666682L784.5359374999999,331.66438400586446L792.5414062499999,341.4548611418406L800.546875,333.7148145484924L808.55234375,327.2220375696818L816.5578125,324.21999999999997L824.5632812499999,319.55583351771037L832.56875,309.7683333333333L840.57421875,258.32354166666664L848.5796875,31.416666666666682L856.5851562500001,31.416666666666682L864.590625,31.416666666666682L872.59609375,31.416666666666682" style="fill: none;" fill="none"></path></g></g></g></g></g><g><g opacity="0.0165413"><span fill="rgb(0, 0, 0)" stroke="none" stroke-width="1px">Alt + Scroll to Zoom</span></g></g></g><g transform="translate(72, 377)" clip-path="url(#clip_1)"><clipPath id="clip_1"><rect width="960" height="23"></rect></clipPath><g><g><line x1="0" y1="0" x2="0" y2="5" style="visibility: inherit;" fill="rgb(0, 0, 0)" stroke="rgb(204, 204, 204)" stroke-width="1px"></line><line x1="80.0546875" y1="0" x2="80.0546875" y2="5" style="visibility: inherit;" fill="rgb(0, 0, 0)" stroke="rgb(204, 204, 204)" stroke-width="1px"></line><line x1="160.109375" y1="0" x2="160.109375" y2="5" style="visibility: inherit;" fill="rgb(0, 0, 0)" stroke="rgb(204, 204, 204)" stroke-width="1px"></line><line x1="240.1640625" y1="0" x2="240.1640625" y2="5" style="visibility: inherit;" fill="rgb(0, 0, 0)" stroke="rgb(204, 204, 204)" stroke-width="1px"></line><line x1="320.21875" y1="0" x2="320.21875" y2="5" style="visibility: inherit;" fill="rgb(0, 0, 0)" stroke="rgb(204, 204, 204)" stroke-width="1px"></line><line x1="400.2734375" y1="0" x2="400.2734375" y2="5" style="visibility: inherit;" fill="rgb(0, 0, 0)" stroke="rgb(204, 204, 204)" stroke-width="1px"></line><line x1="480.328125" y1="0" x2="480.328125" y2="5" style="visibility: inherit;" fill="rgb(0, 0, 0)" stroke="rgb(204, 204, 204)" stroke-width="1px"></line><line x1="560.3828125" y1="0" x2="560.3828125" y2="5" style="visibility: inherit;" fill="rgb(0, 0, 0)" stroke="rgb(204, 204, 204)" stroke-width="1px"></line><line x1="640.4375" y1="0" x2="640.4375" y2="5" style="visibility: inherit;" fill="rgb(0, 0, 0)" stroke="rgb(204, 204, 204)" stroke-width="1px"></line><line x1="720.4921875" y1="0" x2="720.4921875" y2="5" style="visibility: inherit;" fill="rgb(0, 0, 0)" stroke="rgb(204, 204, 204)" stroke-width="1px"></line><line x1="800.546875" y1="0" x2="800.546875" y2="5" style="visibility: inherit;" fill="rgb(0, 0, 0)" stroke="rgb(204, 204, 204)" stroke-width="1px"></line><line x1="880.6015625" y1="0" x2="880.6015625" y2="5" style="visibility: inherit;" fill="rgb(0, 0, 0)" stroke="rgb(204, 204, 204)" stroke-width="1px"></line><line x1="960.65625" y1="0" x2="960.65625" y2="5" style="visibility: inherit;" fill="rgb(0, 0, 0)" stroke="rgb(204, 204, 204)" stroke-width="1px"></line></g><g transform="translate(0, 8)"><text x="0" y="0" dx="0em" dy="0.95em" style="text-anchor: middle; visibility: hidden; font-family: Roboto, sans-serif; font-size: 12px; font-weight: 200;" fill="rgb(255, 255, 255)" stroke="none" stroke-width="1px">-10</text><text x="80.0546875" y="0" dx="0em" dy="0.95em" style="text-anchor: middle; visibility: inherit; font-family: Roboto, sans-serif; font-size: 12px; font-weight: 200;" fill="rgb(255, 255, 255)" stroke="none" stroke-width="1px">0</text><text x="160.109375" y="0" dx="0em" dy="0.95em" style="text-anchor: middle; visibility: inherit; font-family: Roboto, sans-serif; font-size: 12px; font-weight: 200;" fill="rgb(255, 255, 255)" stroke="none" stroke-width="1px">10</text><text x="240.1640625" y="0" dx="0em" dy="0.95em" style="text-anchor: middle; visibility: inherit; font-family: Roboto, sans-serif; font-size: 12px; font-weight: 200;" fill="rgb(255, 255, 255)" stroke="none" stroke-width="1px">20</text><text x="320.21875" y="0" dx="0em" dy="0.95em" style="text-anchor: middle; visibility: inherit; font-family: Roboto, sans-serif; font-size: 12px; font-weight: 200;" fill="rgb(255, 255, 255)" stroke="none" stroke-width="1px">30</text><text x="400.2734375" y="0" dx="0em" dy="0.95em" style="text-anchor: middle; visibility: inherit; font-family: Roboto, sans-serif; font-size: 12px; font-weight: 200;" fill="rgb(255, 255, 255)" stroke="none" stroke-width="1px">40</text><text x="480.328125" y="0" dx="0em" dy="0.95em" style="text-anchor: middle; visibility: inherit; font-family: Roboto, sans-serif; font-size: 12px; font-weight: 200;" fill="rgb(255, 255, 255)" stroke="none" stroke-width="1px">50</text><text x="560.3828125" y="0" dx="0em" dy="0.95em" style="text-anchor: middle; visibility: inherit; font-family: Roboto, sans-serif; font-size: 12px; font-weight: 200;" fill="rgb(255, 255, 255)" stroke="none" stroke-width="1px">60</text><text x="640.4375" y="0" dx="0em" dy="0.95em" style="text-anchor: middle; visibility: inherit; font-family: Roboto, sans-serif; font-size: 12px; font-weight: 200;" fill="rgb(255, 255, 255)" stroke="none" stroke-width="1px">70</text><text x="720.4921875" y="0" dx="0em" dy="0.95em" style="text-anchor: middle; visibility: inherit; font-family: Roboto, sans-serif; font-size: 12px; font-weight: 200;" fill="rgb(255, 255, 255)" stroke="none" stroke-width="1px">80</text><text x="800.546875" y="0" dx="0em" dy="0.95em" style="text-anchor: middle; visibility: inherit; font-family: Roboto, sans-serif; font-size: 12px; font-weight: 200;" fill="rgb(255, 255, 255)" stroke="none" stroke-width="1px">90</text><text x="880.6015625" y="0" dx="0em" dy="0.95em" style="text-anchor: middle; visibility: inherit; font-family: Roboto, sans-serif; font-size: 12px; font-weight: 200;" fill="rgb(255, 255, 255)" stroke="none" stroke-width="1px">100</text><text x="960.65625" y="0" dx="0em" dy="0.95em" style="text-anchor: middle; visibility: hidden; font-family: Roboto, sans-serif; font-size: 12px; font-weight: 200;" fill="rgb(255, 255, 255)" stroke="none" stroke-width="1px">110</text></g><line x1="0" y1="0" x2="960.65625" y2="0" fill="rgb(0, 0, 0)" stroke="rgb(204, 204, 204)" stroke-width="1px"></line></g></g></g></g></svg>